<svg xmlns="http://www.w3.org/2000/svg" xmlns:xlink="http://www.w3.org/1999/xlink" xml:space="preserve" width="100.748" height="94.383" style="shape-rendering:geometricPrecision;text-rendering:geometricPrecision;image-rendering:optimizeQuality;fill-rule:evenodd;clip-rule:evenodd" viewBox="0 0 597 559"><defs><clipPath id="id0"><path d="M296 124c72 0 130 59 130 131s-58 131-130 131-130-59-130-131 58-131 130-131m-3 24c59 0 106 48 106 107s-48 107-106 107c-59 0-106-48-106-107s47-107 106-107"/></clipPath><clipPath id="id1" style="clip-rule:nonzero"><path d="M482 251c10-15 29-29 48-43 24-17 47-34 51-52h4c2 47-25 62-58 80-13 7-26 14-38 24l-2-3c13-10 26-17 39-25 28-16 53-29 56-66-9 15-28 29-48 44-19 14-38 27-47 42l-3-2z"/></clipPath><clipPath id="id2" style="clip-rule:nonzero"><path d="M490 266c11-7 25-17 39-25 27-15 54-26 64-40l4 1c3 39-38 52-73 63-10 3-19 6-27 10l-2-4c8-3 17-6 27-10 32-10 70-22 70-54-12 13-37 23-61 37-14 7-27 18-38 25l-2-3z"/></clipPath><clipPath id="id3" style="clip-rule:nonzero"><path d="M498 278c11-4 23-7 36-11 25-7 50-14 60-21l3 2c-5 21-17 32-35 37-17 5-39 4-64 2v-4c25 2 46 3 63-2 15-4 25-13 31-29-13 6-35 13-57 19-13 4-25 7-36 11z"/></clipPath><clipPath id="id4" style="clip-rule:nonzero"><path d="M498 306q12 0 24 3c23 3 46 7 57-11-4 0-8 0-14-1-19-2-47-4-67 4l-2-4c21-9 50-6 69-4 8 1 14 1 17 1l4-1-2 4c-11 24-37 20-62 16l-24-3z"/></clipPath><clipPath id="id5" style="clip-rule:nonzero"><path d="M510 318q18-1.5 33 0c11 1 21 2 30 6l3 1-2 2c-8 9-21 17-37 17-12 0-27-5-44-18l2-3c17 12 30 17 42 17 14 0 24-6 32-13-8-2-17-4-26-4-10-1-21 0-33 0v-4z"/></clipPath><clipPath id="id6" style="clip-rule:nonzero"><path d="M493 329c12 4 22 8 31 13s17 10 23 15l2 2-2 1c-10 6-21 8-33 5-11-3-23-11-35-25l3-3c12 13 23 21 33 23q13.5 3 27-3c-5-4-12-9-20-13-9-5-19-9-31-13l1-4z"/></clipPath><clipPath id="id7" style="clip-rule:nonzero"><path d="M471 353c6 11 15 18 24 21 9 4 18 4 29 3-5-6-12-12-19-16-8-5-18-8-29-11l1-4c11 2 21 6 30 11s16 12 22 20l2 3-3 1c-13 2-25 2-35-3-10-4-19-12-26-23l3-2z"/></clipPath><clipPath id="id8" style="clip-rule:nonzero"><path d="M456 356c14 5 26 12 35 19s16 16 20 25l1 3h-3c-11 1-22-1-33-7-10-6-20-16-29-31l3-2c9 15 18 24 28 29 9 5 18 7 28 6q-6-12-18-21c-9-7-20-13-34-18l1-4z"/></clipPath><clipPath id="id9" style="clip-rule:nonzero"><path d="M444 368c11 7 19 15 24 23 6 8 9 17 9 26v2h-2c-13-1-22-6-29-14s-11-19-13-33h4c2 13 5 24 12 31q9 10.5 24 12c-1-7-4-14-9-21-5-8-13-15-23-22l2-3z"/></clipPath><clipPath id="id10" style="clip-rule:nonzero"><path d="M115 251c-10-15-29-29-48-43-24-17-47-34-51-52h-4c-2 47 25 62 58 80 13 7 26 14 38 24l2-3c-13-10-26-17-39-25-28-16-53-29-56-66 9 15 28 29 48 44 19 14 38 27 47 42l3-2z"/></clipPath><clipPath id="id11" style="clip-rule:nonzero"><path d="M107 266c-11-7-25-17-39-25-27-15-54-26-64-40l-4 1c-3 39 38 52 73 63 10 3 19 6 27 10l2-4c-8-3-17-6-27-10-32-10-70-22-70-54 12 13 37 23 61 37 14 7 27 18 38 25l2-3z"/></clipPath><clipPath id="id12" style="clip-rule:nonzero"><path d="M99 278c-11-4-23-7-36-11-25-7-50-14-60-21l-3 2c5 21 17 32 35 37 17 5 39 4 64 2v-4c-25 2-46 3-63-2-15-4-25-13-31-29 13 6 35 13 57 19 13 4 25 7 36 11z"/></clipPath><clipPath id="id13" style="clip-rule:nonzero"><path d="M99 306q-12 0-24 3c-23 3-46 7-57-11 4 0 8 0 14-1 19-2 47-4 67 4l2-4c-21-9-50-6-69-4-8 1-14 1-17 1l-4-1 2 4c11 24 37 20 62 16l24-3z"/></clipPath><clipPath id="id14" style="clip-rule:nonzero"><path d="M87 318q-18-1.5-33 0c-11 1-21 2-30 6l-3 1 2 2c8 9 21 17 37 17 12 0 27-5 44-18l-2-3c-17 12-30 17-42 17-14 0-24-6-32-13 8-2 17-4 26-4 10-1 21 0 33 0v-4z"/></clipPath><clipPath id="id15" style="clip-rule:nonzero"><path d="M104 329c-12 4-22 8-31 13s-17 10-23 15l-2 2 2 1c10 6 21 8 33 5 11-3 23-11 35-25l-3-3c-12 13-23 21-33 23q-13.5 3-27-3c5-4 12-9 20-13 9-5 19-9 31-13l-1-4z"/></clipPath><clipPath id="id16" style="clip-rule:nonzero"><path d="M126 353c-6 11-15 18-24 21-9 4-18 4-29 3 5-6 12-12 19-16 8-5 18-8 29-11l-1-4c-11 2-21 6-30 11s-16 12-22 20l-2 3 3 1c13 2 25 2 35-3 10-4 19-12 26-23l-3-2z"/></clipPath><clipPath id="id17" style="clip-rule:nonzero"><path d="M141 356c-14 5-26 12-35 19s-16 16-20 25l-1 3h3c11 1 22-1 33-7 10-6 20-16 29-31l-3-2c-9 15-18 24-28 29-9 5-18 7-28 6q6-12 18-21c9-7 20-13 34-18l-1-4z"/></clipPath><clipPath id="id18" style="clip-rule:nonzero"><path d="M153 368c-11 7-19 15-24 23-6 8-9 17-9 26v2h2c13-1 22-6 29-14s11-19 13-33h-4c-2 13-5 24-12 31q-9 10.5-24 12c1-7 4-14 9-21 5-8 13-15 23-22l-2-3z"/></clipPath><radialGradient id="id19" cx="49.001%" cy="50.001%" r="50%" fx="49.001%" fy="50.001%" gradientUnits="objectBoundingBox"><stop offset="0" style="stop-color:#ac8949"/><stop offset=".169" style="stop-color:#a98b4c"/><stop offset=".502" style="stop-color:#f0db90"/><stop offset=".761" style="stop-color:#a98b4c"/><stop offset="1" style="stop-color:#a98b4c"/></radialGradient><radialGradient xlink:href="#id19" id="id20" cx="50.999%" cy="50.001%" r="50%" fx="50.999%" fy="50.001%" gradientUnits="objectBoundingBox"/><radialGradient id="id28" cx="50%" cy="50%" r="50%" fx="50%" fy="50%" gradientUnits="objectBoundingBox"><stop offset="0" style="stop-color:#fefefe"/><stop offset=".988" style="stop-color:#dbaa23"/><stop offset="1" style="stop-color:#c98f24"/></radialGradient><radialGradient id="id29" cx="48.999%" cy="63.001%" r="37.001%" fx="48.999%" fy="63.001%" gradientUnits="objectBoundingBox"><stop offset="0" style="stop-color:#ffeeb5"/><stop offset=".231" style="stop-color:#f1e6a7"/><stop offset=".459" style="stop-color:#eadcb1"/><stop offset="1" style="stop-color:#ac8949"/></radialGradient><radialGradient xlink:href="#id29" id="id30" cx="51.001%" cy="63.001%" r="37.001%" fx="51.001%" fy="63.001%" gradientUnits="objectBoundingBox"/><radialGradient id="id31" cx="43.999%" cy="59%" r="34%" fx="43.999%" fy="59%" gradientUnits="objectBoundingBox"><stop offset="0" style="stop-color:white"/><stop offset=".302" style="stop-color:#ebdb7f"/><stop offset=".529" style="stop-color:#e3d098"/><stop offset="1" style="stop-color:#ac8949"/></radialGradient><radialGradient xlink:href="#id31" id="id32" cx="55.999%" cy="59%" r="34%" fx="55.999%" fy="59%" gradientUnits="objectBoundingBox"/><linearGradient id="id21" x1="175.778" x2="166.551" y1="425.942" y2="374.172" gradientUnits="userSpaceOnUse"><stop offset="0" style="stop-color:#ac8949"/><stop offset=".388" style="stop-color:#ebd181"/><stop offset=".671" style="stop-color:#f7e78c"/><stop offset=".769" style="stop-color:#f1e6a7"/><stop offset="1" style="stop-color:white"/></linearGradient><linearGradient xlink:href="#id21" id="id22" x1="430.441" x2="421.214" y1="425.942" y2="374.172" gradientUnits="userSpaceOnUse"/><linearGradient id="id23" x1="50%" x2="50%" y1="5.999%" y2="94.001%" gradientUnits="objectBoundingBox"><stop offset="0" style="stop-color:#ccad66"/><stop offset=".451" style="stop-color:#e6cb8d"/><stop offset=".62" style="stop-color:#e6ca8a"/><stop offset="1" style="stop-color:#bca05e"/></linearGradient><linearGradient id="id24" x1="398.308" x2="405.183" y1="425.286" y2="380.405" gradientUnits="userSpaceOnUse"><stop offset="0" style="stop-color:#ac8949"/><stop offset=".412" style="stop-color:#eadcb1"/><stop offset=".671" style="stop-color:#f1e6a7"/><stop offset="1" style="stop-color:white"/></linearGradient><linearGradient xlink:href="#id24" id="id25" x1="191.809" x2="198.685" y1="425.286" y2="380.405" gradientUnits="userSpaceOnUse"/><linearGradient id="id26" x1="202.98" x2="222.518" y1="382.738" y2="387.818" gradientUnits="userSpaceOnUse"><stop offset="0" style="stop-color:#ac8949"/><stop offset=".541" style="stop-color:#eadcb1"/><stop offset=".769" style="stop-color:#f1e6a7"/><stop offset="1" style="stop-color:white"/></linearGradient><linearGradient xlink:href="#id26" id="id27" x1="374.474" x2="394.012" y1="382.738" y2="387.818" gradientUnits="userSpaceOnUse"/><style>.fil50{fill:none}.fil3{fill:#d2aa3d}.fil5{fill:#d9b75b}.fil2{fill:#ddbf6b}.fil29{fill:#debb5b}.fil27{fill:#debc5a}.fil7{fill:#e0c479}.fil25{fill:#e4c878}.fil31{fill:#e4c97c}.fil4{fill:#e6cf90}.fil9{fill:#e7d196}.fil23{fill:#ead496}.fil32{fill:#ebd69c}.fil11{fill:#eedeb4}.fil6{fill:#eedfb5}.fil21{fill:#f0e1b4}.fil34{fill:#f1e4bd}.fil13{fill:#f4ebd2}.fil19{fill:#f6edd2}.fil46{fill:#f7dca6}.fil20{fill:#f7dfa6}.fil8{fill:#f7efda}.fil22{fill:#f8e0a7}.fil44{fill:#f8e0b1}.fil36{fill:#f8f1de}.fil47{fill:#f9e2b5}.fil42{fill:#f9e4bc}.fil18{fill:#f9e5b8}.fil24{fill:#fae6b9}.fil45{fill:#fae8c4}.fil40{fill:#fae9c7}.fil16{fill:#faebca}.fil26{fill:#fbeccb}.fil38{fill:#fbedd2}.fil43{fill:#fbeed3}.fil15{fill:#fbf8f0}.fil37{fill:#fcf1dd}.fil14{fill:#fcf2db}.fil17{fill:#fcf9f0}.fil28{fill:#fdf3dc}.fil41{fill:#fdf4e2}.fil35{fill:#fdf6e8}.fil12{fill:#fdf8ed}.fil30{fill:#fef9ee}.fil39{fill:#fefaf1}.fil33{fill:#fefaf3}.fil10{fill:#fff}.fil101{fill-rule:nonzero}.fil53{fill:#ac8949}.fil53,.fil54{fill-rule:nonzero}.fil101{fill:#ae8b4b}.fil54{fill:#ae8c4c}.fil102,.fil144,.fil184{fill-rule:nonzero}.fil144{fill:#ae8c4d}.fil184{fill:#af8e4f}.fil102{fill:#b08e4e}.fil145,.fil206,.fil55{fill-rule:nonzero}.fil55{fill:#b08f50}.fil145{fill:#b08f51}.fil206{fill:#b19052}.fil103{fill:#b29151}.fil103,.fil146,.fil56{fill-rule:nonzero}.fil56{fill:#b29254}.fil146{fill:#b39255}.fil104{fill-rule:nonzero}.fil185{fill:#b39356}.fil185,.fil207{fill-rule:nonzero}.fil104{fill:#b49454}.fil207{fill:#b49456}.fil105,.fil147,.fil57{fill-rule:nonzero}.fil57{fill:#b59558}.fil147{fill:#b59659}.fil105{fill:#b69757}.fil106,.fil209,.fil58{fill-rule:nonzero}.fil209{fill:#b7975b}.fil58{fill:#b7985c}.fil106{fill:#b8995a}.fil107,.fil148,.fil59{fill-rule:nonzero}.fil148{fill:#b8995d}.fil59{fill:#b99b60}.fil107{fill:#ba9c5c}.fil149{fill:#ba9c61}.fil149,.fil186,.fil60{fill-rule:nonzero}.fil186{fill:#bb9d63}.fil60{fill:#bc9e63}.fil108{fill:#bc9f5f}.fil108,.fil150,.fil212{fill-rule:nonzero}.fil212{fill:#bc9f64}.fil150{fill:#bda066}.fil109,.fil187,.fil61{fill-rule:nonzero}.fil61{fill:#bea167}.fil109{fill:#bea262}.fil187{fill:#bfa269}.fil110,.fil151,.fil62{fill-rule:nonzero}.fil151{fill:#bfa36a}.fil62{fill:#c0a46b}.fil110{fill:#c0a565}.fil152{fill-rule:nonzero}.fil215{fill:#c2a66d}.fil215,.fil63{fill-rule:nonzero}.fil152{fill:#c2a66e}.fil63{fill:#c2a76f}.fil111{fill:#c3a868}.fil111,.fil153,.fil188{fill-rule:nonzero}.fil188{fill:#c3a870}.fil153{fill:#c4aa72}.fil112{fill:#c5aa6b}.fil112,.fil113,.fil64{fill-rule:nonzero}.fil64{fill:#c5aa73}.fil113{fill:#c7ad6e}.fil114,.fil154,.fil65{fill-rule:nonzero}.fil154{fill:#c7ad76}.fil65{fill:#c7ad77}.fil114{fill:#c9b070}.fil155{fill:#c9b07a}.fil155,.fil217,.fil66{fill-rule:nonzero}.fil66{fill:#c9b07b}.fil217{fill:#cab17b}.fil115,.fil189{fill-rule:nonzero}.fil189{fill:#cbb27d}.fil115{fill:#cbb373}.fil156,.fil218,.fil67{fill-rule:nonzero}.fil67{fill:#ccb47e}.fil156{fill:#ccb47f}.fil218{fill:#cdb580}.fil116{fill:#cdb676}.fil116,.fil157,.fil68{fill-rule:nonzero}.fil68{fill:#ceb782}.fil157{fill:#ceb783}.fil117{fill:#cfb879}.fil117,.fil219,.fil69{fill-rule:nonzero}.fil219{fill:#cfb885}.fil69{fill:#d0ba86}.fil118{fill-rule:nonzero}.fil158{fill:#d1ba87}.fil158,.fil221{fill-rule:nonzero}.fil118{fill:#d1bb7c}.fil221{fill:#d2bc89}.fil119,.fil190,.fil70{fill-rule:nonzero}.fil190{fill:#d2bc8a}.fil70{fill:#d3bd8a}.fil119{fill:#d3be7f}.fil120,.fil159,.fil71{fill-rule:nonzero}.fil159{fill:#d3be8b}.fil71{fill:#d5c08e}.fil120{fill:#d5c181}.fil160{fill:#d6c18f}.fil160,.fil191,.fil72{fill-rule:nonzero}.fil191{fill:#d6c290}.fil72{fill:#d7c392}.fil121{fill:#d7c484}.fil121,.fil161,.fil224{fill-rule:nonzero}.fil224{fill:#d8c492}.fil161{fill:#d8c493}.fil122,.fil192,.fil73{fill-rule:nonzero}.fil73{fill:#d9c696}.fil122{fill:#dac787}.fil192{fill:#dac797}.fil123{fill-rule:nonzero}.fil162{fill:#dbc898}.fil162,.fil74{fill-rule:nonzero}.fil123{fill:#dcc98a}.fil74{fill:#dcc999}.fil124{fill-rule:nonzero}.fil163{fill:#ddcb9c}.fil163,.fil75{fill-rule:nonzero}.fil124{fill:#decc8d}.fil75{fill:#decc9d}.fil125{fill-rule:nonzero}.fil164{fill:#e0cea0}.fil164,.fil225{fill-rule:nonzero}.fil125{fill:#e0cf90}.fil225{fill:#e0cfa0}.fil126,.fil193,.fil76{fill-rule:nonzero}.fil76{fill:#e0cfa1}.fil193{fill:#e2d1a4}.fil126{fill:#e2d293}.fil127,.fil165,.fil77{fill-rule:nonzero}.fil165{fill:#e2d2a4}.fil77{fill:#e3d2a5}.fil127{fill:#e4d595}.fil166{fill:#e5d5a8}.fil166,.fil226,.fil78{fill-rule:nonzero}.fil78{fill:#e5d5a9}.fil226{fill:#e5d6aa}.fil128,.fil167,.fil194{fill-rule:nonzero}.fil194{fill:#e6d6aa}.fil128{fill:#e6d798}.fil167{fill:#e7d8ac}.fil129,.fil227,.fil79{fill-rule:nonzero}.fil79{fill:#e7d8ad}.fil129{fill:#e8da9b}.fil227{fill:#e8daae}.fil130,.fil168,.fil80{fill-rule:nonzero}.fil80{fill:#eadcb1}.fil130{fill:#eadd9e}.fil168{fill:#eaddb0}.fil138,.fil81,.fil82{fill-rule:nonzero}.fil81{fill:#ebddb0}.fil82{fill:#ebdeaf}.fil138{fill:#ecdeaf}.fil131,.fil137,.fil83{fill-rule:nonzero}.fil83{fill:#ecdfae}.fil131{fill:#ece0a1}.fil137{fill:#eddfae}.fil139,.fil84,.fil85{fill-rule:nonzero}.fil84{fill:#ede0ad}.fil85{fill:#ede1ac}.fil139{fill:#ede1bc}.fil132,.fil136,.fil86{fill-rule:nonzero}.fil136{fill:#eee1ac}.fil86{fill:#eee2ab}.fil132{fill:#eee3a4}.fil135{fill-rule:nonzero}.fil169{fill:#eee3aa}.fil169,.fil87{fill-rule:nonzero}.fil135{fill:#efe2ab}.fil87{fill:#efe3aa}.fil170{fill:#efe4a9}.fil170,.fil88,.fil89{fill-rule:nonzero}.fil88{fill:#f0e4a9}.fil89{fill:#f0e5a8}.fil133,.fil134,.fil140{fill-rule:nonzero}.fil140{fill:#f0e6c7}.fil134{fill:#f1e5a8}.fil133{fill:#f1e6a7}.fil171{fill:#f1e6a9}.fil171,.fil223,.fil90{fill-rule:nonzero}.fil90{fill:#f1e7aa}.fil223{fill:#f1e7ab}.fil172{fill-rule:nonzero}.fil195{fill:#f2e8ae}.fil195,.fil222{fill-rule:nonzero}.fil172{fill:#f2e8af}.fil222{fill:#f2e8b0}.fil173,.fil220,.fil91{fill-rule:nonzero}.fil91{fill:#f2e9b2}.fil173{fill:#f3e9b4}.fil220{fill:#f3eab5}.fil141,.fil174,.fil196{fill-rule:nonzero}.fil196{fill:#f3eab7}.fil174{fill:#f3ebb9}.fil141{fill:#f3ebd2}.fil175,.fil197,.fil92{fill-rule:nonzero}.fil92{fill:#f4ebba}.fil197{fill:#f4ecbc}.fil175{fill:#f4ecbf}.fil176,.fil198,.fil93{fill-rule:nonzero}.fil93{fill:#f5edc1}.fil176{fill:#f5eec4}.fil198{fill:#f5eec5}.fil142,.fil199,.fil94{fill-rule:nonzero}.fil94{fill:#f6efc9}.fil199{fill:#f6f0ca}.fil142{fill:#f6f0dd}.fil177{fill-rule:nonzero}.fil216{fill:#f7f1ce}.fil216,.fil95{fill-rule:nonzero}.fil177{fill:#f7f1cf}.fil95{fill:#f7f1d1}.fil178,.fil213,.fil214{fill-rule:nonzero}.fil214{fill:#f8f2d3}.fil178{fill:#f8f2d4}.fil213{fill:#f8f3d7}.fil179,.fil211,.fil96{fill-rule:nonzero}.fil96{fill:#f8f4d8}.fil179{fill:#f9f4d9}.fil211{fill:#f9f5dc}.fil143,.fil180,.fil200{fill-rule:nonzero}.fil200{fill:#f9f5dd}.fil180{fill:#f9f5df}.fil143{fill:#f9f5e8}.fil201,.fil210,.fil97{fill-rule:nonzero}.fil97{fill:#faf6e0}.fil210{fill:#faf6e1}.fil201{fill:#faf6e2}.fil181{fill:#faf7e4}.fil181,.fil202,.fil208{fill-rule:nonzero}.fil208{fill:#fbf8e6}.fil202{fill:#fbf8e7}.fil182,.fil203,.fil98{fill-rule:nonzero}.fil98{fill:#fbf8e8}.fil182{fill:#fbf8e9}.fil203{fill:#fbf9eb}.fil183,.fil204,.fil99{fill-rule:nonzero}.fil99{fill:#fcfaef}.fil204{fill:#fcfaf0}.fil183{fill:#fdfbf4}.fil0,.fil100,.fil205{fill-rule:nonzero}.fil205{fill:#fdfcf5}.fil100{fill:#fff}.fil0{fill:url(#id23)}</style></defs><g id="Layer_x0020_1"><path d="M122 539h4l-2-22zm-11 20 6-47h15l6 47h-10l-1-12h-6l-1 12z" class="fil0"/><path id="1" d="M142 559v-48h13l8 38-1-38h9v48h-14l-7-39v39z" class="fil0"/><path id="2" d="M200 533v20c0 1-1 3-2 4s-2 2-3 2-4 1-7 1-6 0-7-1c-1 0-2-1-3-2s-1-2-2-4v-36c0-1 1-3 2-4s2-2 3-2 4-1 7-1 5 0 7 1c1 0 2 1 3 2s1 2 2 4v9h-9v-4c0-1 0-2-1-3 0 0-1-1-2-1s-2 0-2 1c0 0-1 1-1 3v25c0 1 0 2 1 3 0 0 1 1 2 1s2 0 2-1c0 0 1-1 1-3v-6h-3v-9h12z" class="fil0"/><path id="3" d="M206 559v-48h18v9h-9v10h8v8h-8v12h10v9z" class="fil0"/><path id="4" d="M229 559v-48h10v39h9v9z" class="fil0"/><path id="5" d="M289 533v20c0 1-1 3-2 4s-2 2-3 2-4 1-7 1-6 0-7-1c-1 0-2-1-3-2s-1-2-2-4v-36c0-1 1-3 2-4s2-2 3-2 4-1 7-1 5 0 7 1c1 0 2 1 3 2s1 2 2 4v9h-9v-4c0-1 0-2-1-3 0 0-1-1-2-1s-2 0-2 1c0 0-1 1-1 3v25c0 1 0 2 1 3 0 0 1 1 2 1s2 0 2-1c0 0 1-1 1-3v-6h-3v-9h12z" class="fil0"/><path id="6" d="M306 520h-2v15h2c1 0 2 0 2-1 0 0 1-1 1-3v-8c0-1 0-2-1-3 0 0-1-1-2-1zm3 27c0-2 0-3-1-3-1-1-2-1-3-1h-2v16h-9v-47h10q9 0 12 3c2 2 3 5 3 10v5c0 3-1 5-2 6s-3 2-5 3c2 0 4 1 5 3 1 1 2 3 2 6v12h-9v-12z" class="fil0"/><path id="7" d="M333 539h4l-2-22zm-11 20 6-47h15l6 47h-10l-1-12h-6l-1 12z" class="fil0"/><path id="8" d="M353 559v-48h13l8 38-1-38h9v48h-14l-7-39 1 39z" class="fil0"/><path id="9" d="M397 559h-9v-48h9z" class="fil0"/><path id="10" d="M407 559v-39h-6v-9h22v9h-6v39z" class="fil0"/><path id="11" d="M427 559v-48h18v9h-9v10h8v8h-8v12h9v9z" class="fil0"/><path id="12" d="M458 543v5c0 1 0 2 1 3 0 1 1 1 2 1s2 0 2-1c0 0 1-1 1-3v-5s0-1-1-1c-1-1-2-2-4-2-1 0-2 0-2-1-3-1-4-2-5-4s-1-4-1-7v-4c0-4 1-7 2-9s4-3 7-3h3c2 0 4 0 5 1 1 0 3 1 3 2 1 1 1 2 1 3v10h-8v-3c0-1 0-2-1-3 0 0-1-1-2-1s-2 0-2 1c0 0-1 1-1 3v3c0 2 2 4 5 5 1 0 2 1 2 1 3 1 4 2 5 4s1 4 1 7v6c0 4-1 7-2 9-2 2-4 3-8 3h-3c-4 0-7-1-8-2-2-2-2-5-2-9v-5h9z" class="fil0"/><g style="clip-path:url(#id0)"><path d="m62 464 498 16v-32zm0 0-499-16v32z" style="fill:#cc9e20"/><path d="m62 464 498-16-2-32z" class="fil2"/><path d="m62 464-499 16 2 32z" class="fil3"/><path d="m62 464 496-48-4-32z" class="fil4"/><path d="m62 464-497 48 4 32z" class="fil5"/><path d="m62 464 492-80-6-31z" class="fil6"/><path d="m62 464-493 80 6 31z" class="fil7"/><path d="m62 464 486-111-8-31z" class="fil8"/><path d="m62 464-487 111 8 31z" class="fil9"/><path d="m62 464 478-142-10-30z" class="fil10"/><path d="m62 464-479 142 10 30z" class="fil11"/><path d="m62 464 468-172-12-30z" class="fil12"/><path id="13" d="m62 464-469 172 12 30z" class="fil13"/><path id="14" d="m62 464 456-202-14-29z" class="fil14"/><path id="15" d="m62 464-457 202 14 29z" class="fil15"/><path id="16" d="m62 464 442-231-16-28z" class="fil16"/><path id="17" d="m62 464-443 231 16 28z" class="fil17"/><path id="18" d="m62 464 426-259-17-27z" class="fil18"/><path id="19" d="m62 464-427 259 17 27z" class="fil19"/><path id="20" d="m62 464 409-286-19-25z" class="fil20"/><path id="21" d="m62 464-410 286 20 25z" class="fil21"/><path id="22" d="m62 464 390-311-21-25z" class="fil22"/><path id="23" d="m62 464-390 311 20 25z" class="fil23"/><path id="24" d="m62 464 369-336-22-22z" class="fil24"/><path id="25" d="m62 464-370 336 23 23z" class="fil25"/><path id="26" d="m62 464 347-358-24-22z" class="fil26"/><path id="27" d="m62 464-347 359 23 21z" class="fil27"/><path id="28" d="M62 464 385 84l-25-20z" class="fil28"/><path id="29" d="m62 464-324 380 25 20z" class="fil29"/><path id="30" d="M62 464 360 64l-26-18z" class="fil30"/><path id="31" d="m62 464-299 400 26 18z" class="fil31"/><path id="32" d="M62 464 334 46l-27-17z" class="fil10"/><path id="33" d="m62 464-273 418 28 17z" class="fil32"/><path id="34" d="M62 464 307 29l-29-15z" class="fil33"/><path id="35" d="m62 464-245 435 28 15z" class="fil34"/><path id="36" d="M62 464 278 14 249 1z" class="fil35"/><path id="37" d="m62 464-217 450 29 13z" class="fil36"/><path id="38" d="M62 464 249 1l-30-11z" class="fil37"/><path id="39" d="m62 464-188 463 30 11z" class="fil10"/><path id="40" d="M62 464 219-10l-31-9z" class="fil38"/><path id="41" d="M62 464-96 938l31 9z" class="fil39"/><path id="42" d="M62 464 188-19l-31-7z" class="fil40"/><path id="43" d="M62 464-65 947l31 7z" class="fil41"/><path id="44" d="m62 464 95-490-31-5z" class="fil42"/><path id="45" d="m62 464-96 490 32 5z" class="fil43"/><path id="46" d="m62 464 64-495-32-3z" class="fil44"/><path id="47" d="M62 464-2 959l32 3z" class="fil45"/><path id="48" d="M62 464 94-34l-32-1z" class="fil46"/><path id="49" d="M62 464 30 962l32 1z" class="fil47"/><path id="50" d="M62 464V-35l-32 1z" class="fil47"/><path id="51" d="M62 464v499l32-1z" class="fil46"/><path id="52" d="M62 464 30-34l-32 3z" class="fil45"/><path id="53" d="m62 464 32 498 32-3z" class="fil44"/><path id="54" d="M62 464-2-31l-32 5z" class="fil43"/><path id="55" d="m62 464 64 495 31-5z" class="fil42"/><path id="56" d="M62 464-34-26l-31 7z" class="fil41"/><path id="57" d="m62 464 95 490 31-7z" class="fil40"/><path id="58" d="M62 464-65-19l-31 9z" class="fil39"/><path id="59" d="m62 464 126 483 31-9z" class="fil38"/><path id="60" d="M62 464-96-10l-30 11z" class="fil10"/><path id="61" d="m62 464 157 474 30-11z" class="fil37"/><path id="62" d="M62 464-126 1l-29 13z" class="fil36"/><path id="63" d="m62 464 187 463 29-13z" class="fil35"/><path id="64" d="M62 464-155 14l-28 15z" class="fil34"/><path id="65" d="m62 464 216 450 29-15z" class="fil33"/><path id="66" d="M62 464-183 29l-28 17z" class="fil32"/><path id="67" d="m62 464 245 435 27-17z" class="fil10"/><path id="68" d="M62 464-211 46l-26 18z" class="fil31"/><path id="69" d="m62 464 272 418 26-18z" class="fil30"/><path id="70" d="M62 464-237 64l-25 20z" class="fil29"/><path id="71" d="m62 464 298 400 25-20z" class="fil28"/><path id="72" d="M62 464-262 84l-23 22z" class="fil27"/><path id="73" d="m62 464 323 380 24-21z" class="fil26"/><path id="74" d="m62 464-347-358-23 22z" class="fil25"/><path id="75" d="m62 464 347 359 22-23z" class="fil24"/><path id="76" d="m62 464-370-336-20 25z" class="fil23"/><path id="77" d="m62 464 369 336 21-25z" class="fil22"/><path id="78" d="m62 464-390-311-20 25z" class="fil21"/><path id="79" d="m62 464 390 311 19-25z" class="fil20"/><path id="80" d="m62 464-410-286-17 27z" class="fil19"/><path id="81" d="m62 464 409 286 17-27z" class="fil18"/><path id="82" d="m62 464-427-259-16 28z" class="fil17"/><path id="83" d="m62 464 426 259 16-28z" class="fil16"/><path id="84" d="m62 464-443-231-14 29z" class="fil15"/><path id="85" d="m62 464 442 231 14-29z" class="fil14"/><path id="86" d="m62 464-457-202-12 30z" class="fil13"/><path id="87" d="m62 464 456 202 12-30z" class="fil12"/><path id="88" d="m62 464-469-172-10 30z" class="fil11"/><path id="89" d="m62 464 468 172 10-30z" class="fil10"/><path id="90" d="m62 464-479-142-8 31z" class="fil9"/><path id="91" d="m62 464 478 142 8-31z" class="fil8"/><path id="92" d="m62 464-487-111-6 31z" class="fil7"/><path id="93" d="m62 464 486 111 6-31z" class="fil6"/><path id="94" d="m62 464-493-80-4 32z" class="fil5"/><path id="95" d="m62 464 492 80 4-32z" class="fil4"/><path id="96" d="m62 464-497-48-2 32z" class="fil3"/><path id="97" d="m62 464 496 48 2-32z" class="fil2"/></g><path d="M296 122c36 0 69 15 93 39s38 57 38 93-15 69-38 93c-24 24-57 39-93 39s-69-15-93-39-38-57-38-93 15-69 38-93c24-24 57-39 93-39m91 40c-23-23-56-38-91-38-36 0-68 15-91 38s-38 56-38 92 14 68 38 92c23 23 56 38 91 38 36 0 68-15 91-38s38-56 38-92-14-68-38-92m-94-16c30 0 56 12 76 32 19 20 31 46 31 76s-12 57-31 76c-19 20-46 32-76 32s-56-12-76-32c-19-20-31-47-31-76 0-30 12-57 31-76 19-20 46-32 76-32m74 33c-19-19-45-31-74-31s-55 12-74 31-31 46-31 75 12 56 31 75 45 31 74 31 55-12 74-31 31-46 31-75-12-56-31-75" style="fill:url(#id28);fill-rule:nonzero"/><path d="m244 218-24 85h17l6-22h23l6 22h17l-24-85zm6 31c1-5 3-12 4-17 1 5 3 12 4 17l5 19h-18zm83 7v13h12v21c-1 1-4 1-8 1-14 0-25-10-25-30 0-21 12-30 27-30 8 0 12 1 16 3l3-13c-4-2-11-4-20-4-24 0-44 15-44 44 0 13 4 25 12 32 7 7 17 10 30 10 10 0 19-2 24-4v-44h-28z" style="fill-rule:nonzero;fill:#ccad66"/><path d="M429 230c10-16 15-19 26-30 62-68 131-152 47-198 22 7 25 9 34 17 52 54 12 131-83 200-8 6-22 21-20 27" class="fil50"/><path d="M428 229c7-11 12-16 18-22 2-2 5-5 8-9 31-34 64-72 78-107 14-34 10-66-31-88l2-4c11 4 18 6 22 8 5 2 8 5 13 9 3 3 6 7 8 10 16 22 19 47 11 74-8 26-27 54-56 81-13 13-29 26-46 39-5 3-11 9-15 15-3 4-5 8-4 10l-4 1c-1-3 1-8 5-14 5-6 11-13 16-16 17-13 33-25 46-38 28-27 47-54 55-79s5-49-10-70c-2-3-5-6-8-10-4-4-7-6-12-8-2-1-3-2-6-2 30 23 31 52 18 84-15 36-48 74-79 108-3 3-6 6-8 9-6 6-11 11-17 21l-3-2z" style="fill:url(#id31);fill-rule:nonzero"/><path d="M459 239c11-21 33-42 45-51 34-25 83-74 66-106 29 43 0 91-69 130-14 8-31 18-36 36" class="fil50"/><path d="M457 238c5-9 12-18 19-26 10-11 20-20 26-25 20-14 44-36 57-58 10-16 14-32 8-45l3-2c1 2 2 3 3 5 11 19 11 39 1 59-9 20-28 39-54 57-6 4-13 8-20 12s-15 9-21 14c-6 6-12 12-14 21l-4-1c3-9 9-16 16-22s15-11 22-15 14-8 20-12c26-17 44-36 53-55 7-16 9-31 3-47 0 11-4 22-11 33-14 23-39 45-59 59-6 5-16 14-26 24-7 8-14 17-18 26l-3-2z" style="fill:url(#id29);fill-rule:nonzero"/><path d="M483 253c21-33 93-62 99-95 3 64-51 68-95 103" class="fil50"/><g style="clip-path:url(#id1)"><path d="M481 157h104v104H481zl2 2h100v100H483V159z" class="fil53"/><path d="M482 158h102v102H482zl2 2h98v98h-98v-98z" class="fil54"/><path d="M483 159h100v100H483zl2 2h96v96h-96v-96z" class="fil55"/><path d="M484 160h98v98h-98zl2 2h94v94h-94v-94z" class="fil56"/><path d="M485 161h96v96h-96zl2 2h92v92h-92v-92z" class="fil57"/><path d="M486 162h94v94h-94zl2 2h90v90h-90v-90z" class="fil58"/><path d="M487 163h92v92h-92zl2 2h88v88h-88v-88z" class="fil59"/><path d="M488 164h90v90h-90zl2 2h86v86h-86v-86z" class="fil60"/><path d="M489 165h88v88h-88zl2 2h84v84h-84v-84z" class="fil61"/><path d="M490 166h86v86h-86zl2 2h82v82h-82v-82z" class="fil62"/><path d="M491 167h84v84h-84zl2 2h80v80h-80v-80z" class="fil63"/><path d="M492 168h82v82h-82zl2 2h78v78h-78v-78z" class="fil64"/><path d="M493 169h80v80h-80zl2 3h76v75h-76v-75z" class="fil65"/><path d="M494 170h78v78h-78zl3 3h73v73h-73v-73z" class="fil66"/><path d="M495 172h76v75h-76zl3 2h71v71h-71v-71z" class="fil67"/><path d="M497 173h73v73h-73zl2 2h69v69h-69v-69z" class="fil68"/><path d="M498 174h71v71h-71zl2 2h67v67h-67v-67z" class="fil69"/><path d="M499 175h69v69h-69zl2 2h65v65h-65v-65z" class="fil70"/><path d="M500 176h67v67h-67zl2 2h63v63h-63v-63z" class="fil71"/><path d="M501 177h65v65h-65zl2 2h60v60h-60v-60z" class="fil72"/><path d="M502 178h63v63h-63zl2 2h58v58h-58v-58z" class="fil73"/><path d="M503 179h60v60h-60zl2 2h56v56h-56v-56z" class="fil74"/><path d="M504 180h58v58h-58zl2 2h54v54h-54v-54z" class="fil75"/><path d="M505 181h56v56h-56zl2 2h52v52h-52v-52z" class="fil76"/><path d="M506 182h54v54h-54zl2 2h50v50h-50v-50z" class="fil77"/><path d="M507 183h52v52h-52zl2 2h48v48h-48v-48z" class="fil78"/><path d="M508 184h50v50h-50zl2 2h46v46h-46v-46z" class="fil79"/><path d="M509 185h48v48h-48zl2 2h44v44h-44v-44z" class="fil80"/><path d="M510 186h46v46h-46zl2 2h42v42h-42v-42z" class="fil80"/><path d="M511 187h44v44h-44zl2 2h40v40h-40v-40z" class="fil81"/><path d="M512 188h42v42h-42zl2 2h38v38h-38v-38z" class="fil82"/><path d="M513 189h40v40h-40zl2 2h36v36h-36v-36z" class="fil83"/><path d="M514 190h38v38h-38zl2 2h34v34h-34v-34z" class="fil84"/><path d="M515 191h36v36h-36zl2 2h32v32h-32v-32z" class="fil85"/><path d="M516 192h34v34h-34zl3 3h29v29h-29v-29z" class="fil86"/><path d="M517 193h32v32h-32zl3 3h27v27h-27v-27z" class="fil86"/><path d="M519 195h29v29h-29zl2 2h25v25h-25v-25z" class="fil87"/><path d="M520 196h27v27h-27zl2 2h23v23h-23v-23z" class="fil88"/><path d="M521 197h25v25h-25zl2 2h21v21h-21v-21z" class="fil89"/><path d="M522 198h23v23h-23zl2 2h19v19h-19v-19z" class="fil90"/><path d="M523 199h21v21h-21zl2 2h17v17h-17v-17z" class="fil91"/><path d="M524 200h19v19h-19zl2 2h14v14h-14v-14z" class="fil92"/><path d="M525 201h17v17h-17zl2 2h12v12h-12v-12z" class="fil93"/><path d="M526 202h14v14h-14zl2 2h10v10h-10v-10z" class="fil94"/><path d="M527 203h12v12h-12zl2 2h8v8h-8v-8z" class="fil95"/><path d="M528 204h10v10h-10zl2 2h6v6h-6v-6z" class="fil96"/><path d="M529 205h8v8h-8zl2 2h4v4h-4v-4z" class="fil97"/><path d="M530 206h6v6h-6zl2 2h2v2h-2v-2z" class="fil98"/><path d="M531 207h4v4h-4zl2 2z" class="fil99"/><path d="M532 208h2v2h-2z" class="fil100"/></g><path d="M491 267c34-22 88-44 103-65 4 49-66 56-99 71" class="fil50"/><g style="clip-path:url(#id2)"><path d="M490 184h108v108H490zl2 2h104v104H492V186z" class="fil53"/><path d="M491 185h106v106H491zl3 2h101v102H494V187z" class="fil54"/><path d="M492 186h104v104H492zl3 2h99v100h-99V188z" class="fil55"/><path d="M494 187h101v102H494zl2 3h97v97h-97v-97z" class="fil56"/><path d="M495 188h99v100h-99zl2 3h95v95h-95v-95z" class="fil57"/><path d="M496 190h97v97h-97zl2 2h93v93h-93v-93z" class="fil58"/><path d="M497 191h95v95h-95zl2 2h91v91h-91v-91z" class="fil59"/><path d="M498 192h93v93h-93zl2 2h89v88h-89v-88z" class="fil60"/><path d="M499 193h91v91h-91zl2 2h87v86h-87v-86z" class="fil61"/><path d="M500 194h89v88h-89zl2 2h84v84h-84v-84z" class="fil62"/><path d="M501 195h87v86h-87zl2 2h82v82h-82v-82z" class="fil63"/><path d="M502 196h84v84h-84zl2 2h80v80h-80v-80z" class="fil64"/><path d="M503 197h82v82h-82zl2 2h78v78h-78v-78z" class="fil65"/><path d="M504 198h80v80h-80zl3 2h75v76h-75v-76z" class="fil66"/><path d="M505 199h78v78h-78zl3 2h73v74h-73v-74z" class="fil67"/><path d="M507 200h75v76h-75zl2 3h71v71h-71v-71z" class="fil68"/><path d="M508 201h73v74h-73zl2 3h69v69h-69v-69z" class="fil69"/><path d="M509 203h71v71h-71zl2 2h67v67h-67v-67z" class="fil70"/><path d="M510 204h69v69h-69zl2 2h65v65h-65v-65z" class="fil71"/><path d="M511 205h67v67h-67zl2 2h63v63h-63v-63z" class="fil72"/><path d="M512 206h65v65h-65zl2 2h61v60h-61v-60z" class="fil73"/><path d="M513 207h63v63h-63zl2 2h59v58h-59v-58z" class="fil74"/><path d="M514 208h61v60h-61zl2 2h56v56h-56v-56z" class="fil75"/><path d="M515 209h59v58h-59zl2 2h54v54h-54v-54z" class="fil76"/><path d="M516 210h56v56h-56zl2 2h52v52h-52v-52z" class="fil77"/><path d="M517 211h54v54h-54zl2 2h50v50h-50v-50z" class="fil78"/><path d="M518 212h52v52h-52zl3 2h47v48h-47v-48z" class="fil79"/><path d="M520 213h49v50h-49zl2 2h45v46h-45v-46z" class="fil80"/><path d="M521 214h47v48h-47zl2 3h43v43h-43v-43z" class="fil80"/><path d="M522 215h45v46h-45zl2 3h41v41h-41v-41z" class="fil81"/><path d="M523 217h43v43h-43zl2 2h39v39h-39v-39z" class="fil82"/><path d="M524 218h41v41h-41zl2 2h37v37h-37v-37z" class="fil83"/><path d="M525 219h39v39h-39zl2 2h35v34h-35v-34z" class="fil84"/><path d="M526 220h37v37h-37zl2 2h33v32h-33v-32z" class="fil85"/><path d="M527 221h35v34h-35zl2 2h30v30h-30v-30z" class="fil86"/><path d="M528 222h33v32h-33zl2 2h28v28h-28v-28z" class="fil86"/><path d="M529 223h30v30h-30zl2 2h26v26h-26v-26z" class="fil87"/><path d="M530 224h28v28h-28zl2 2h24v24h-24v-24z" class="fil88"/><path d="M531 225h26v26h-26zl3 2h21v22h-21v-22z" class="fil89"/><path d="M532 226h24v24h-24zl3 2h19v20h-19v-20z" class="fil90"/><path d="M534 227h21v22h-21zl2 3h17v17h-17v-17z" class="fil91"/><path d="M535 228h19v20h-19zl2 3h15v15h-15v-15z" class="fil92"/><path d="M536 230h17v17h-17zl2 2h13v13h-13v-13z" class="fil93"/><path d="M537 231h15v15h-15zl2 2h11v11h-11v-11z" class="fil94"/><path d="M538 232h13v13h-13zl2 2h9v9h-9v-9z" class="fil95"/><path d="M539 233h11v11h-11zl2 2h7v6h-7v-6z" class="fil96"/><path d="M540 234h9v8h-9zl2 2h5v4h-5v-4z" class="fil97"/><path d="M541 235h7v6h-7zl2 2h2v2h-2v-2z" class="fil98"/><path d="M542 236h5v4h-5zl2 2z" class="fil99"/><path d="M543 237h2v2h-2z" class="fil100"/></g><path d="M498 280c32-11 80-21 97-32-10 41-47 40-97 37" class="fil50"/><g style="clip-path:url(#id3)"><path d="M498 218h99v100h-99zl2 2h95v96h-95v-96z" class="fil53"/><path d="M499 219h97v98h-97zl2 2h93v94h-93v-94z" class="fil54"/><path d="M500 220h95v96h-95zl2 2h91v92h-91v-92z" class="fil55"/><path d="M501 221h93v94h-93zl2 2h89v90h-89v-90z" class="fil56"/><path d="M502 222h91v92h-91zl2 2h87v88h-87v-88z" class="fil57"/><path d="M503 223h89v90h-89zl2 2h85v86h-85v-86z" class="fil58"/><path d="M504 224h87v88h-87zl2 2h83v84h-83v-84z" class="fil59"/><path d="M505 225h85v86h-85zl2 2h81v82h-81v-82z" class="fil60"/><path d="M506 226h83v84h-83zl2 2h79v80h-79v-80z" class="fil61"/><path d="M507 227h81v82h-81zl2 2h77v78h-77v-78z" class="fil62"/><path d="M508 228h79v80h-79zl2 2h75v76h-75v-76z" class="fil63"/><path d="M509 229h77v78h-77zl2 2h73v74h-73v-74z" class="fil64"/><path d="M510 230h75v76h-75zl2 2h71v72h-71v-72z" class="fil65"/><path d="M511 231h73v74h-73zl2 2h69v70h-69v-70z" class="fil66"/><path d="M512 232h71v72h-71zl2 2h67v68h-67v-68z" class="fil67"/><path d="M513 233h69v70h-69zl2 2h65v66h-65v-66z" class="fil68"/><path d="M514 234h67v68h-67zl2 2h63v64h-63v-64z" class="fil69"/><path d="M515 235h65v66h-65zl2 2h61v62h-61v-62z" class="fil70"/><path d="M516 236h63v64h-63zl2 2h59v60h-59v-60z" class="fil71"/><path d="M517 237h61v62h-61zl2 2h57v58h-57v-58z" class="fil72"/><path d="M518 238h59v60h-59zl2 2h55v56h-55v-56z" class="fil73"/><path d="M519 239h57v58h-57zl2 2h53v54h-53v-54z" class="fil74"/><path d="M520 240h55v56h-55zl2 2h51v52h-51v-52z" class="fil75"/><path d="M521 241h53v54h-53zl2 2h49v50h-49v-50z" class="fil76"/><path d="M522 242h51v52h-51zl2 2h47v48h-47v-48z" class="fil77"/><path d="M523 243h49v50h-49zl1 2h46v46h-46v-46z" class="fil78"/><path d="M524 244h47v48h-47zl1 2h44v44h-44v-44z" class="fil79"/><path d="M524 245h46v46h-46zl2 2h42v42h-42v-42z" class="fil80"/><path d="M525 246h44v44h-44zl2 2h40v40h-40v-40z" class="fil80"/><path d="M526 247h42v42h-42zl2 2h38v38h-38v-38z" class="fil81"/><path d="M527 248h40v40h-40zl2 2h36v36h-36v-36z" class="fil82"/><path d="M528 249h38v38h-38zl2 2h34v34h-34v-34z" class="fil83"/><path d="M529 250h36v36h-36zl2 2h32v32h-32v-32z" class="fil84"/><path d="M530 251h34v34h-34zl2 2h30v30h-30v-30z" class="fil85"/><path d="M531 252h32v32h-32zl2 2h28v28h-28v-28z" class="fil86"/><path d="M532 253h30v30h-30zl2 2h26v26h-26v-26z" class="fil86"/><path d="M533 254h28v28h-28zl2 2h24v24h-24v-24z" class="fil87"/><path d="M534 255h26v26h-26zl2 2h22v22h-22v-22z" class="fil88"/><path d="M535 256h24v24h-24zl2 2h20v20h-20v-20z" class="fil89"/><path d="M536 257h22v22h-22zl2 2h18v18h-18v-18z" class="fil90"/><path d="M537 258h20v20h-20zl2 2h16v16h-16v-16z" class="fil91"/><path d="M538 259h18v18h-18zl2 2h14v14h-14v-14z" class="fil92"/><path d="M539 260h16v16h-16zl2 2h12v12h-12v-12z" class="fil93"/><path d="M540 261h14v14h-14zl2 2h10v10h-10v-10z" class="fil94"/><path d="M541 262h12v12h-12zl2 2h8v8h-8v-8z" class="fil95"/><path d="M542 263h10v10h-10zl2 2h6v6h-6v-6z" class="fil96"/><path d="M543 264h8v8h-8zl2 2h4v4h-4v-4z" class="fil97"/><path d="M544 265h6v6h-6zl2 2h2v2h-2v-2z" class="fil98"/><path d="M545 266h4v4h-4zl2 2z" class="fil99"/><path d="M546 267h2v2h-2z" class="fil100"/></g><path d="M498 307c30 1 70 17 84-12-9 2-56-9-85 3" class="fil50"/><g style="clip-path:url(#id4)"><path d="m446 182 171 60-60 171-171-60zl2 4 165 58-58 165-165-58 58-165z" class="fil53"/><path d="m447 184 168 59-59 168-168-59zl2 5 161 56-56 161-161-57 56-160z" class="fil101"/><path d="m448 186 165 58-58 165-165-58zl2 5 158 55-56 158-157-56 55-157z" class="fil102"/><path d="m449 189 161 56-56 161-161-57zl3 4 154 55-55 154-154-55 55-154z" class="fil103"/><path d="m450 191 158 55-56 158-157-56zl3 5 150 53-53 150-150-53 53-150z" class="fil104"/><path d="m452 193 154 55-55 154-154-55zl2 5 147 52-52 147-147-52 52-147z" class="fil105"/><path d="m453 196 150 53-53 150-150-53zl2 4 144 51-51 144-144-51 51-144z" class="fil106"/><path d="m454 198 147 52-52 147-147-52zl2 5 140 49-49 140-140-49 49-140z" class="fil107"/><path d="m455 200 144 51-51 144-144-51zl2 5 137 48-48 137-137-48 48-137z" class="fil108"/><path d="m456 203 140 49-49 140-140-49zl2 4 134 47-47 134-134-47 47-134z" class="fil109"/><path d="m457 205 137 48-48 137-137-48zl2 4 130 46-45 130-131-45 46-131z" class="fil110"/><path d="m458 207 134 47-47 134-134-47zl2 5 127 44-45 127-126-45 44-126z" class="fil111"/><path d="m459 209 130 46-45 130-131-45zl3 5 123 44-44 123-123-44 44-123z" class="fil112"/><path d="m460 212 127 44-45 127-126-45zl3 4 119 43-42 119-120-42 43-120z" class="fil113"/><path d="m462 214 123 44-44 123-123-44zl2 5 116 41-41 116-116-41 41-116z" class="fil114"/><path d="m463 216 119 43-42 119-120-42zl2 5 113 40-40 113-113-40 40-113z" class="fil115"/><path d="m464 219 116 41-41 116-116-41zl2 4 110 39-39 109-110-38 39-110z" class="fil116"/><path d="m465 221 113 40-40 113-113-40zl2 5 106 37-37 106-106-37 37-106z" class="fil117"/><path d="m466 223 110 39-39 110-110-39zl2 5 103 36-36 103-103-36 36-103z" class="fil118"/><path d="m467 226 106 37-37 106-106-37zl2 4 100 35-35 100-100-35 35-100z" class="fil119"/><path d="m468 228 103 36-36 103-103-36zl2 5 96 33-34 96-95-34 33-95z" class="fil120"/><path d="m469 230 100 35-35 100-100-35zl3 5 92 33-33 92-92-33 33-92z" class="fil121"/><path d="m470 233 96 33-34 96-95-34zl3 4 89 32-32 89-89-32 32-89z" class="fil122"/><path d="m472 235 92 33-33 92-92-33zl2 5 85 30-30 85-85-30 30-85z" class="fil123"/><path d="m473 237 89 32-32 89-89-32zl2 5 82 29-29 82-82-29 29-82z" class="fil124"/><path d="m474 240 85 30-30 85-85-30zl2 4 79 28-28 79-79-28 28-79z" class="fil125"/><path d="m475 242 82 29-29 82-82-29zl2 4 75 27-26 75-75-26 26-76z" class="fil126"/><path d="m476 244 79 28-28 79-79-28zl2 5 72 25-25 72-72-25 25-72z" class="fil127"/><path d="m477 246 75 27-26 75-75-26zl2 5 69 24-24 69-69-24 24-69z" class="fil128"/><path d="m478 249 72 25-25 72-72-25zl2 4 65 23-23 65-65-23 23-65z" class="fil129"/><path d="m479 251 69 24-24 69-69-24zl2 5 62 21-22 62-61-22 21-61z" class="fil130"/><path d="m480 253 65 23-23 65-65-23zl3 5 58 21-21 58-58-21 21-58z" class="fil131"/><path d="m482 256 61 21-22 62-61-22zl2 4 54 20-19 54-55-19 20-55z" class="fil132"/><path d="m483 258 58 21-21 58-58-21zl2 5 51 18-18 51-51-18 18-51z" class="fil133"/><path d="m484 260 54 20-19 54-55-19zl2 5 48 17-17 48-48-17 17-48z" class="fil134"/><path d="m485 263 51 18-18 51-51-18zl2 4 45 16-16 45-45-16 16-45z" class="fil88"/><path d="m486 265 48 17-17 48-48-17zl2 5 41 14-14 41-41-14 14-41z" class="fil87"/><path d="m487 267 45 16-16 45-45-16zl2 5 38 13-13 38-38-13 13-38z" class="fil135"/><path d="m488 270 41 14-14 41-41-14zl2 4 35 12-12 35-35-13 12-34z" class="fil136"/><path d="m489 272 38 13-13 38-38-13zl2 5 31 10-11 31-30-11 10-30z" class="fil84"/><path d="m490 274 35 12-12 35-35-13zl3 5 27 10-10 27-27-10 10-27z" class="fil137"/><path d="m491 277 31 10-11 31-30-11zl3 4 24 9-9 24-24-9 9-24z" class="fil138"/><path d="m493 279 27 10-10 27-27-10zl2 5 20 7-7 20-20-7 7-20z" class="fil81"/><path d="m494 281 24 9-9 24-24-9zl2 5 17 6-6 17-17-6 6-17z" class="fil80"/><path d="m495 284 20 7-7 20-20-7zl2 4 14 5-5 14-14-5 5-14z" class="fil139"/><path d="m496 286 17 6-6 17-17-6zl2 4 10 4-3 10-11-3 4-11z" class="fil140"/><path d="m497 288 14 5-5 14-14-5zl2 5 7 2-2 7-7-2 2-7z" class="fil141"/><path d="m498 290 10 4-3 10-11-3zl2 5 4 1-1 4-4-1 1-4z" class="fil142"/><path d="m499 293 7 2-2 7-7-2zl2 4z" class="fil143"/><path d="m500 295 4 1-1 4-4-1z" class="fil100"/></g><path d="M511 320c23-2 44-1 62 5-14 15-40 27-79-1" class="fil50"/><g style="clip-path:url(#id5)"><path d="m430 239 156 16-16 157-157-16zl2 3 151 16-16 151-150-16 15-151z" class="fil53"/><path d="m431 241 154 16-16 153-154-16zl3 3 147 15-15 148-147-15 15-148z" class="fil54"/><path d="m432 242 151 16-16 151-150-16zl3 4 144 15-14 144-145-15 15-144z" class="fil55"/><path d="m434 244 147 15-15 148-147-15zl3 4 141 14-15 141-141-14 15-141z" class="fil56"/><path d="m435 246 144 15-14 144-145-15zl3 3 138 15-14 138-138-15 14-138z" class="fil57"/><path d="m437 248 141 14-15 141-141-14zl2 3 135 14-14 135-135-14 14-135z" class="fil58"/><path d="m438 249 138 15-14 138-138-15zl3 4 131 13-13 132-132-13 14-132z" class="fil59"/><path d="m439 251 135 14-14 135-135-14zl3 4 129 13-13 128-129-13 13-128z" class="fil60"/><path d="m441 253 131 13-13 132-132-13zl3 3 125 13-13 126-125-13 13-126z" class="fil61"/><path d="m442 255 129 13-13 128-129-13zl3 3 122 13-12 122-123-13 13-122z" class="fil62"/><path d="m444 256 125 13-13 126-125-13zl2 4 120 12-13 119-119-12 12-119z" class="fil63"/><path d="m445 258 122 13-12 122-123-13zl3 4 116 11-12 117-116-12 12-116z" class="fil64"/><path d="m446 260 120 12-13 119-119-12zl3 3 113 12-12 113-112-12 11-113z" class="fil65"/><path d="m448 262 116 11-12 117-116-12zl3 3 109 11-11 110-110-11 12-110z" class="fil66"/><path d="m449 263 113 12-12 113-112-12zl3 4 107 11-11 106-107-11 11-106z" class="fil67"/><path d="m451 265 109 11-11 110-110-11zl2 3 104 11-11 104-103-11 10-104z" class="fil68"/><path d="m452 267 107 11-11 106-107-11zl3 3 100 11-10 100-101-10 11-101z" class="fil69"/><path d="m453 268 104 11-11 104-103-11zl3 4 97 10-10 97-97-10 10-97z" class="fil70"/><path d="m455 270 100 11-10 100-101-10zl3 4 94 9-10 94-94-9 10-94z" class="fil71"/><path d="m456 272 97 10-10 97-97-10zl3 3 91 10-9 91-91-10 9-91z" class="fil72"/><path d="m458 274 94 9-10 94-94-9zl2 3 88 9-9 88-88-9 9-88z" class="fil73"/><path d="m459 275 91 10-9 91-91-10zl3 4 85 9-9 84-85-9 9-84z" class="fil74"/><path d="m460 277 88 9-9 88-88-9zl3 4 82 8-9 81-81-8 8-81z" class="fil75"/><path d="m462 279 85 9-9 84-85-9zl3 3 78 8-8 79-78-8 8-79z" class="fil76"/><path d="m463 281 82 8-9 81-81-8zl3 3 75 8-7 75-76-8 8-75z" class="fil77"/><path d="m465 282 78 8-8 79-78-8zl2 4 73 7-8 72-72-7 7-72z" class="fil78"/><path d="m466 284 75 8-7 75-76-8zl3 3 69 8-7 69-69-8 7-69z" class="fil79"/><path d="m467 286 73 7-8 72-72-7zl3 3 66 7-7 66-65-7 6-66z" class="fil80"/><path d="m469 287 69 8-7 69-69-8zl3 4 62 6-6 63-63-6 7-63z" class="fil80"/><path d="m470 289 66 7-7 66-65-7zl3 4 60 6-6 59-60-6 6-59z" class="fil81"/><path d="m472 291 62 6-6 63-63-6zl3 3 56 6-6 57-56-6 6-57z" class="fil82"/><path d="m473 293 60 6-6 59-60-6zl3 3 53 6-5 53-54-6 6-53z" class="fil83"/><path d="m475 294 56 6-6 57-56-6zl2 4 51 5-6 50-50-5 5-50z" class="fil84"/><path d="m476 296 53 6-5 53-54-6zl3 4 47 4-5 47-47-4 5-47z" class="fil85"/><path d="m477 298 51 5-6 50-50-5zl3 3 44 5-4 44-44-5 4-44z" class="fil86"/><path d="m479 300 47 4-5 47-47-4zl3 3 40 4-4 41-41-4 5-41z" class="fil86"/><path d="m480 301 44 5-4 44-44-5zl3 4 38 4-4 37-38-4 4-37z" class="fil87"/><path d="m482 303 40 4-4 41-41-4zl2 3 35 4-4 35-34-4 3-35z" class="fil88"/><path d="m483 305 38 4-4 37-38-4zl3 3 31 3-3 32-31-3 3-32z" class="fil89"/><path d="m484 306 35 4-4 35-34-4zl3 4 28 3-3 28-28-3 3-28z" class="fil90"/><path d="m486 308 31 3-3 32-31-3zl3 4 25 2-3 25-25-2 3-25z" class="fil91"/><path d="m487 310 28 3-2 28-29-3zl3 3 22 3-2 22-22-3 2-22z" class="fil92"/><path d="m489 312 25 2-3 25-25-2zl2 3 19 2-2 19-19-2 2-19z" class="fil93"/><path d="m490 313 22 3-2 22-22-3zl3 4 15 1-1 16-16-1 2-16z" class="fil94"/><path d="m491 315 19 2-2 19-19-2zl3 4 13 1-2 12-12-1 1-12z" class="fil95"/><path d="m493 317 15 1-1 16-16-1zl3 3 9 1-1 10-9-1 1-10z" class="fil96"/><path d="m494 319 13 1-2 12-12-1zl3 3 6 1v6l-7-1 1-6z" class="fil97"/><path d="m496 320 9 1-1 10-9-1zl2 4h4l-1 3h-3v-3z" class="fil98"/><path d="m497 322 6 1v6l-7-1zl3 4z" class="fil99"/><path d="M498 324h4l-1 3h-3z" class="fil100"/></g><path d="M492 331c24 8 42 17 53 28-20 11-41 8-65-19" class="fil50"/><g style="clip-path:url(#id6)"><path d="m459 266 113 39-39 113-113-39zl1 3 109 38-37 108-109-37 37-109z" class="fil53"/><path d="m459 268 111 38-38 111-111-38zl2 3 106 36-36 107-107-37 37-106z" class="fil144"/><path d="m460 269 109 38-37 108-109-37zl2 3 104 36-36 104-104-35 36-105z" class="fil145"/><path d="m461 271 106 36-36 107-107-37zl1 3 102 35-35 102-102-35 35-102z" class="fil146"/><path d="m462 272 104 36-36 104-104-35zl1 3 100 35-34 99-100-34 34-100z" class="fil147"/><path d="m462 274 102 35-35 102-102-35zl2 3 97 33-33 98-98-34 34-97z" class="fil148"/><path d="m463 275 100 35-34 99-100-34zl2 3 95 33-33 95-95-32 33-96z" class="fil149"/><path d="m464 277 97 33-33 98-98-34zl1 3 93 32-32 93-93-32 32-93z" class="fil150"/><path d="m465 278 95 33-33 95-95-32zl1 3 91 32-31 90-91-31 31-91z" class="fil151"/><path d="m465 280 93 32-32 93-93-32zl2 3 88 30-30 89-88-31 30-88z" class="fil152"/><path d="m466 281 91 32-31 90-91-31zl2 3 86 30-30 86-86-29 30-87z" class="fil153"/><path d="m467 283 88 30-30 89-88-31zl1 3 84 29-29 84-83-29 28-84z" class="fil154"/><path d="m468 284 86 30-30 86-86-29zl1 4 82 28-28 81-82-28 28-81z" class="fil155"/><path d="m468 286 84 29-29 84-83-29zl2 3 79 27-27 80-79-28 27-79z" class="fil156"/><path d="m469 288 82 28-28 81-82-28zl2 3 77 26-27 77-77-26 27-77z" class="fil157"/><path d="m470 289 79 27-27 80-79-28zl1 3 75 26-26 75-74-26 25-75z" class="fil158"/><path d="m471 291 77 26-27 77-77-26zl1 3 73 25-25 72-73-25 25-72z" class="fil159"/><path d="m471 292 75 26-26 75-74-26zl2 3 70 24-24 70-70-24 24-70z" class="fil160"/><path d="m472 294 73 25-25 72-73-25zl2 3 67 23-23 68-68-23 24-68z" class="fil161"/><path d="m473 295 70 24-24 70-70-24zl1 3 66 23-23 65-65-22 22-66z" class="fil162"/><path d="m474 297 67 23-23 68-68-23zl1 3 63 21-21 64-64-22 22-63z" class="fil163"/><path d="m474 298 66 23-23 65-65-22zl2 3 61 21-21 61-61-21 21-61z" class="fil164"/><path d="m475 300 63 21-21 64-64-22zl2 3 58 20-20 59-59-20 21-59z" class="fil165"/><path d="m476 301 61 21-21 61-61-21zl1 3 57 20-20 56-56-19 19-57z" class="fil166"/><path d="m477 303 58 20-20 59-59-20zl1 3 54 18-18 55-55-19 19-54z" class="fil167"/><path d="m477 304 57 20-20 56-56-19zl2 3 52 18-18 52-52-18 18-52z" class="fil80"/><path d="m478 306 54 18-18 55-55-19zl1 3 50 17-17 50-50-17 17-50z" class="fil168"/><path d="m479 307 52 18-18 52-52-18zl1 3 48 17-17 47-47-16 16-48z" class="fil82"/><path d="m479 309 50 17-17 50-50-17zl2 3 45 15-15 46-46-16 16-45z" class="fil83"/><path d="m480 310 48 17-17 47-47-16zl2 3 43 15-15 43-43-15 15-43z" class="fil84"/><path d="m481 312 45 15-15 46-46-16zl1 3 41 14-14 41-41-14 14-41z" class="fil136"/><path d="m482 313 43 15-15 43-43-15zl1 3 39 14-14 38-38-13 13-39z" class="fil169"/><path d="m482 315 41 14-14 41-41-14zl2 3 36 12-12 37-36-13 12-36z" class="fil170"/><path d="m483 316 39 14-14 38-38-13zl2 3 34 12-12 34-34-12 12-34z" class="fil89"/><path d="m484 318 36 12-12 37-36-13zl1 3 32 11-11 32-31-11 10-32z" class="fil171"/><path d="m485 319 34 12-12 34-34-12zl1 4 30 10-10 29-30-10 10-29z" class="fil172"/><path d="m485 321 32 11-11 32-31-11zl2 3 27 9-9 28-27-10 9-27z" class="fil173"/><path d="m486 323 30 10-10 29-30-10zl2 3 25 8-9 25-25-9 9-24z" class="fil174"/><path d="m487 324 27 9-9 28-27-10zl1 3 23 8-8 23-22-8 7-23z" class="fil175"/><path d="m488 326 25 8-9 25-25-9zl1 3 21 7-7 20-21-7 7-20z" class="fil176"/><path d="m488 327 23 8-8 23-22-8zl2 3 18 6-6 18-18-6 6-18z" class="fil94"/><path d="m489 329 21 7-7 20-21-7zl2 3 15 5-5 16-16-5 6-16z" class="fil177"/><path d="m490 330 18 6-6 18-18-6zl1 3 14 5-5 13-13-4 4-14z" class="fil178"/><path d="m491 332 15 5-5 16-16-5zl1 3 11 4-3 11-12-4 4-11z" class="fil179"/><path d="m491 333 14 5-5 13-13-4zl2 3 9 3-3 9-9-3 3-9z" class="fil180"/><path d="m492 335 11 4-3 11-12-4zl2 3 6 2-2 7-7-2 3-7z" class="fil181"/><path d="m493 336 9 3-3 9-9-3zl1 3 5 2-2 4-4-1 1-5z" class="fil182"/><path d="m494 338 6 2-2 7-7-2zl1 3 2 1v2l-3-1 1-2z" class="fil99"/><path d="m494 339 5 2-2 4-4-1zl2 3z" class="fil183"/><path d="m495 341 2 1v2l-3-1z" class="fil100"/></g><path d="M470 354c13 22 33 29 59 25-12-16-29-25-51-30" class="fil50"/><g style="clip-path:url(#id7)"><path d="m454 267 106 60-60 107-106-60zv3l103 58-58 102-102-57 57-103z" class="fil53"/><path d="m454 269 105 58-59 105-105-59zl1 3 100 56-56 101-100-57 56-100z" class="fil184"/><path d="m454 270 103 58-58 102-102-57zl1 4 99 55-56 98-98-55 55-98z" class="fil185"/><path d="m455 272 100 56-56 101-100-57zl1 3 96 54-54 96-96-53 54-97z" class="fil58"/><path d="m455 274 99 55-56 98-98-55zl1 3 94 53-52 94-94-53 52-94z" class="fil186"/><path d="m456 275 96 54-54 96-96-53zl1 4 92 51-52 92-92-51 52-92z" class="fil187"/><path d="m456 277 94 53-52 94-94-53zl1 3 90 51-50 89-90-50 50-90z" class="fil188"/><path d="m457 279 92 51-52 92-92-51zl1 3 87 49-49 88-87-49 49-88z" class="fil154"/><path d="m457 280 90 51-50 89-90-50zl1 4 86 48-48 85-86-48 48-85z" class="fil189"/><path d="m458 282 87 49-49 88-87-49zl1 3 83 47-47 83-83-46 47-84z" class="fil157"/><path d="m458 284 86 48-48 85-86-48zl1 3 81 46-45 81-81-46 45-81z" class="fil190"/><path d="m459 285 83 47-47 83-83-46zl1 4 79 44-45 79-79-44 45-79z" class="fil191"/><path d="m459 287 81 46-45 81-81-46zl1 3 77 44-43 76-77-43 43-77z" class="fil192"/><path d="m460 289 79 44-45 79-79-44zl1 3 74 42-42 75-74-42 42-75z" class="fil75"/><path d="m460 290 77 44-43 76-77-43zl1 4 73 40-41 73-73-41 41-72z" class="fil193"/><path d="m461 292 74 42-42 75-74-42zv3l71 40-40 70-70-39 39-71z" class="fil194"/><path d="m461 294 73 40-41 73-73-41zl1 3 68 38-38 69-68-39 38-68z" class="fil80"/><path d="m461 295 71 40-40 70-70-39zl1 4 67 37-38 66-66-37 37-66z" class="fil80"/><path d="m462 297 68 38-38 69-68-39zl1 3 64 36-36 64-64-36 36-64z" class="fil168"/><path d="m462 299 67 37-38 66-66-37zl1 3 62 35-34 62-62-35 34-62z" class="fil81"/><path d="m463 300 64 36-36 64-64-36zl1 4 60 33-34 60-60-33 34-60z" class="fil82"/><path d="m463 302 62 35-34 62-62-35zl1 3 58 33-32 57-58-32 32-58z" class="fil83"/><path d="m464 304 60 33-34 60-60-33zl1 3 55 31-31 56-55-31 31-56z" class="fil83"/><path d="m464 305 58 33-32 57-58-32zl1 4 54 30-30 53-54-30 30-53z" class="fil84"/><path d="m465 307 55 31-31 56-55-31zl1 3 51 29-29 51-51-28 29-52z" class="fil85"/><path d="m465 309 54 30-30 53-54-30zl1 3 49 28-27 49-49-28 27-49z" class="fil136"/><path d="m466 310 51 29-29 51-51-28zl1 4 47 26-27 47-47-26 27-47z" class="fil86"/><path d="m466 312 49 28-27 49-49-28zl1 3 45 26-25 44-45-25 25-45z" class="fil169"/><path d="m467 314 47 26-27 47-47-26zl1 3 42 24-24 43-42-24 24-43z" class="fil87"/><path d="m467 315 45 26-25 44-45-25zl1 4 41 23-23 40-41-23 23-40z" class="fil170"/><path d="m468 317 42 24-24 43-42-24zv3l39 22-22 38-38-21 21-39z" class="fil89"/><path d="m468 319 41 23-23 40-41-23zl1 3 36 20-20 37-36-21 20-36z" class="fil89"/><path d="m468 320 39 22-22 38-38-21zl1 4 35 19-20 34-34-19 19-34z" class="fil171"/><path d="m469 322 36 20-20 37-36-21zl1 3 32 18-18 32-32-18 18-32z" class="fil195"/><path d="m469 324 35 19-20 34-34-19zl1 3 30 17-17 30-29-17 16-30z" class="fil91"/><path d="m470 325 32 18-18 32-32-18zl1 4 28 15-16 28-28-15 16-28z" class="fil196"/><path d="m470 327 30 17-17 30-29-17zl1 3 26 15-14 25-26-14 14-26z" class="fil197"/><path d="m471 329 28 15-16 28-28-15zl1 3 23 13-13 24-23-13 13-24z" class="fil93"/><path d="m471 330 26 15-14 25-26-14zl1 4 22 12-12 21-22-12 12-21z" class="fil198"/><path d="m472 332 23 13-13 24-23-13zl1 3 19 11-11 19-19-10 11-20z" class="fil199"/><path d="m472 334 22 12-12 21-22-12zl1 3 17 10-9 17-17-10 9-17z" class="fil177"/><path d="m473 335 19 11-11 19-19-10zl1 4 15 8-9 15-15-8 9-15z" class="fil178"/><path d="m473 337 17 10-9 17-17-10zl1 3 13 8-7 12-13-7 7-13z" class="fil96"/><path d="m474 339 15 8-9 15-15-8zl1 3 10 6-6 11-10-6 6-11z" class="fil200"/><path d="m474 340 13 8-7 12-13-7zl1 4 9 5-5 8-9-5 5-8z" class="fil201"/><path d="m475 342 10 6-6 11-10-6zl1 3 6 4-4 6-6-3 4-7z" class="fil202"/><path d="m475 344 9 5-5 8-9-5zl1 3 4 2-2 5-4-3 2-4z" class="fil203"/><path d="m476 345 6 4-4 6-6-3zv4l3 1-2 2-2-1 1-2z" class="fil204"/><path d="m476 347 4 2-2 5-4-3zl1 3z" class="fil205"/><path d="m476 349 3 1-2 2-2-1z" class="fil100"/></g><path d="M455 358c28 10 46 25 54 43-22 2-42-7-60-37" class="fil50"/><g style="clip-path:url(#id8)"><path d="m504 379 49-37-3-3z" class="fil100"/><path d="m504 379-50 37 3 3z" class="fil53"/><path d="m504 379 46-40-2-3z" class="fil205"/><path d="m504 379-47 40 3 3z" class="fil144"/><path d="m504 379 44-43-3-3z" class="fil204"/><path d="m504 379-44 43 3 3z" class="fil206"/><path d="m504 379 41-46-3-2z" class="fil203"/><path d="m504 379-41 46 3 3z" class="fil207"/><path d="m504 379 38-48-3-3z" class="fil208"/><path d="m504 379-38 49 3 2z" class="fil209"/><path d="m504 379 35-51-4-2z" class="fil210"/><path d="m504 379-35 51 3 2z" class="fil59"/><path d="m504 379 31-53-3-2z" class="fil211"/><path d="m504 379-32 53 4 2z" class="fil212"/><path d="m504 379 28-55-4-1z" class="fil213"/><path d="m504 379-28 55 3 2z" class="fil187"/><path d="m504 379 24-56-3-2z" class="fil214"/><path d="m504 379-25 57 4 1z" class="fil215"/><path d="m504 379 21-58-4-1z" class="fil216"/><path d="m504 379-21 58 4 1z" class="fil153"/><path d="m504 379 17-59-4-1z" class="fil94"/><path d="m504 379-17 59 3 1z" class="fil65"/><path d="m504 379 13-60-4-1z" class="fil176"/><path d="m504 379-14 60 4 1z" class="fil217"/><path d="m504 379 9-61h-4z" class="fil175"/><path d="m504 379-10 61h4z" class="fil218"/><path d="m504 379 5-61-4-1z" class="fil92"/><path d="m504 379-6 61 4 1z" class="fil219"/><path d="m504 379 1-62h-4z" class="fil220"/><path d="m504 379-2 62h4z" class="fil221"/><path d="m504 379-3-62-4 1z" class="fil222"/><path d="m504 379 2 62 4-1z" class="fil71"/><path d="m504 379-7-61h-4z" class="fil223"/><path d="m504 379 6 61h4z" class="fil224"/><path d="m504 379-11-61-3 1z" class="fil133"/><path d="m504 379 10 61 4-1z" class="fil192"/><path d="m504 379-14-60-4 1z" class="fil88"/><path d="m504 379 14 60 4-1z" class="fil163"/><path d="m504 379-18-59-4 1z" class="fil87"/><path d="m504 379 18 59 3-1z" class="fil225"/><path d="m504 379-22-58-4 2z" class="fil86"/><path d="m504 379 21 58 4-2z" class="fil77"/><path d="m504 379-26-56-3 2z" class="fil136"/><path d="m504 379 25 56 4-1z" class="fil226"/><path d="m504 379-29-54-4 2z" class="fil84"/><path d="m504 379 29 55 3-2z" class="fil227"/><path d="m504 379-33-52-3 2z" class="fil83"/><path d="m504 379 32 53 3-3z" class="fil80"/><path d="m504 379-36-50-3 2z" class="fil82"/><path d="m504 379 35 50 3-2zm0 0-39-48-3 3z" class="fil81"/><path d="m504 379 38 48 3-3z" class="fil82"/><path d="m504 379-42-45-3 2z" class="fil80"/><path d="m504 379 41 45 3-2z" class="fil83"/><path d="m504 379-45-43-3 3z" class="fil227"/><path d="m504 379 44 43 3-3z" class="fil84"/><path d="m504 379-48-40-2 4z" class="fil226"/><path d="m504 379 47 40 2-3z" class="fil136"/><path d="m504 379-50-36-2 3z" class="fil77"/><path d="m504 379 49 37 3-4z" class="fil86"/><path d="m504 379-52-33-2 3z" class="fil225"/><path d="m504 379 52 33 2-3z" class="fil87"/><path d="m504 379-54-30-2 4z" class="fil163"/><path d="m504 379 54 30 1-4z" class="fil88"/><path d="m504 379-56-26-2 3z" class="fil192"/><path d="m504 379 55 26 2-3z" class="fil133"/><path d="m504 379-58-23-1 4z" class="fil224"/><path d="m504 379 57 23 1-4z" class="fil223"/><path d="m504 379-59-19-1 4z" class="fil71"/><path d="m504 379 58 19 1-4z" class="fil222"/><path d="m504 379-60-15-1 4z" class="fil221"/><path d="m504 379 59 15 1-4z" class="fil220"/><path d="m504 379-61-11-1 4z" class="fil219"/><path d="m504 379 60 11 1-3z" class="fil92"/><path d="m504 379-62-7v4z" class="fil218"/><path d="m504 379 61 8v-4z" class="fil175"/><path d="m504 379-62-3v3z" class="fil217"/><path d="m504 379 61 4v-4z" class="fil176"/><path d="M504 379h-62v4z" class="fil65"/><path d="M504 379h61v-4z" class="fil94"/><path d="m504 379-62 4 1 4z" class="fil153"/><path d="m504 379 61-4v-4z" class="fil216"/><path d="m504 379-61 8v4z" class="fil215"/><path d="m504 379 61-8-1-4z" class="fil214"/><path d="m504 379-61 12 1 4z" class="fil187"/><path d="m504 379 60-12-1-4z" class="fil213"/><path d="m504 379-60 16 1 4z" class="fil212"/><path d="m504 379 59-16-1-4z" class="fil211"/><path d="m504 379-59 20 2 4z" class="fil59"/><path d="m504 379 58-20-1-3z" class="fil210"/><path d="m504 379-57 24 1 3z" class="fil209"/><path d="m504 379 57-23-2-4z" class="fil208"/><path d="m504 379-56 27 2 4z" class="fil207"/><path d="m504 379 55-27-2-4z" class="fil203"/><path d="m504 379-54 31 2 3z" class="fil206"/><path d="m504 379 53-31-2-3z" class="fil204"/><path d="m504 379-52 34 2 3z" class="fil144"/><path d="m504 379 51-34-2-3z" class="fil205"/></g><path d="M443 369c21 14 32 30 33 47-24-2-37-18-40-45" class="fil50"/><g style="clip-path:url(#id9)"><path d="M430 368h52v51h-52zl1 1h50v49h-50v-49z" class="fil53"/><path d="M431 368h50v50h-50zl1 1h48v48h-48v-48z" class="fil54"/><path d="M431 369h50v49h-50zl1 1h47v47h-47v-47z" class="fil55"/><path d="M432 369h48v48h-48zl1 1h46v46h-46v-46z" class="fil56"/><path d="M432 370h47v47h-47zl1 1h45v45h-45v-45z" class="fil57"/><path d="M433 370h46v46h-46zl1 1h44v44h-44v-44z" class="fil58"/><path d="M433 371h45v45h-45zl1 1h43v43h-43v-43z" class="fil59"/><path d="M434 371h44v44h-44zl1 1h42v42h-42v-42z" class="fil60"/><path d="M434 372h43v43h-43zl1 1h41v41h-41v-41z" class="fil61"/><path d="M435 372h42v42h-42zl1 1h40v40h-40v-40z" class="fil62"/><path d="M435 373h41v41h-41zl1 1h39v39h-39v-39z" class="fil63"/><path d="M436 373h40v40h-40zl1 1h38v38h-38v-38z" class="fil64"/><path d="M436 374h39v39h-39zl1 1h37v37h-37v-37z" class="fil65"/><path d="M437 374h38v38h-38zl1 1h36v36h-36v-36z" class="fil66"/><path d="M437 375h37v37h-37zl2 1h34v35h-34v-35z" class="fil67"/><path d="M438 375h36v36h-36zl1 1h34v34h-34v-34z" class="fil68"/><path d="M439 376h34v35h-34zl1 1h32v33h-32v-33z" class="fil69"/><path d="M439 376h34v34h-34zl1 1h32v32h-32v-32z" class="fil70"/><path d="M440 377h32v33h-32zl1 1h30v31h-30v-31z" class="fil71"/><path d="M440 377h32v32h-32zl1 1h30v30h-30v-30z" class="fil72"/><path d="M441 378h30v31h-30zl1 1h28v29h-28v-29z" class="fil73"/><path d="M441 378h30v30h-30zl1 1h28v28h-28v-28z" class="fil74"/><path d="M442 379h28v29h-28zl1 1h26v27h-26v-27z" class="fil75"/><path d="M442 379h28v28h-28zl1 1h26v26h-26v-26z" class="fil76"/><path d="M443 380h26v27h-26zl1 1h24v24h-24v-24z" class="fil77"/><path d="M443 380h26v26h-26zl1 1h24v24h-24v-24z" class="fil78"/><path d="M444 381h24v24h-24zl1 1h22v22h-22v-22z" class="fil79"/><path d="M444 381h24v24h-24zl1 1h22v22h-22v-22z" class="fil80"/><path d="M445 382h22v22h-22zl1 1h20v20h-20v-20z" class="fil80"/><path d="M445 382h22v22h-22zl1 1h20v20h-20v-20z" class="fil81"/><path d="M446 383h20v20h-20zl1 1h18v18h-18v-18z" class="fil82"/><path d="M446 383h20v20h-20zl1 1h18v18h-18v-18z" class="fil83"/><path d="M447 384h18v18h-18zl1 1h16v16h-16v-16z" class="fil84"/><path d="M447 384h18v18h-18zl1 2h16v15h-16v-15z" class="fil85"/><path d="M448 385h16v16h-16zl1 1h14v14h-14v-14z" class="fil86"/><path d="M448 386h16v15h-16zl1 1h14v13h-14v-13z" class="fil86"/><path d="M449 386h14v14h-14zl1 1h12v12h-12v-12z" class="fil87"/><path d="M449 387h14v13h-14zl1 1h12v11h-12v-11z" class="fil88"/><path d="M450 387h12v12h-12zl1 1h10v10h-10v-10z" class="fil89"/><path d="M450 388h12v11h-12zl1 1h10v9h-10v-9z" class="fil90"/><path d="M451 388h10v10h-10zl1 1h8v8h-8v-8z" class="fil91"/><path d="M451 389h10v9h-10zl1 1h8v7h-8v-7z" class="fil92"/><path d="M452 389h8v8h-8zl1 1h6v6h-6v-6z" class="fil93"/><path d="M452 390h8v7h-8zl1 1h5v5h-5v-5z" class="fil94"/><path d="M453 390h6v6h-6zl1 1h4v4h-4v-4z" class="fil95"/><path d="M453 391h5v5h-5zl1 1h3v3h-3v-3z" class="fil96"/><path d="M454 391h4v4h-4zl1 1h2v2h-2v-2z" class="fil97"/><path d="M454 392h3v3h-3zl1 1h1v1h-1v-1z" class="fil98"/><path d="M455 392h2v2h-2zl1 1z" class="fil99"/><path d="M455 393h1v1h-1z" class="fil100"/></g><path d="M424 374c17 19 17 34 8 52-15-2-22-14-15-48" class="fil50"/><path d="M425 372c9 10 13 19 14 28s-1 17-6 27l-1 1h-1c-8-1-14-5-17-13s-3-20 1-37l4 1c-3 17-4 28-1 35 2 6 7 9 13 11 4-8 6-16 5-23-1-8-5-16-13-25l3-3z" style="fill:url(#id22);fill-rule:nonzero"/><path d="M405 371c-23 27-22 47-3 63 10-13 14-31 14-51" class="fil50"/><path d="M406 372c-11 13-16 25-17 35 0 9 4 17 11 24q6-9 9-21c2-8 3-18 4-28h4c0 10-1 20-4 28-2 9-6 17-11 24l-1 2-2-1c-10-8-15-17-14-28 0-11 6-23 17-37l3 3z" style="fill:url(#id24);fill-rule:nonzero"/><path d="M399 349c-37 28-41 53-25 71 15-18 18-50 32-67" class="fil50"/><path d="M400 351c-3 2-5 4-8 6q-21 18-24 33c-3 10 0 19 6 27 6-9 10-20 14-32s9-25 16-33l3 2c-7 8-11 20-15 32-4 13-9 25-16 35l-1 2-2-2-2-2c-7-9-9-19-6-30s11-23 26-35c2-2 5-4 8-6l2 3z" style="fill:url(#id27);fill-rule:nonzero"/><path d="M399 345c4-8 21-14 39-14 42 1 62-60 5-77 57 0 61 82-3 82-17-2-34 2-41 9" style="fill:url(#id19)"/><path d="M168 230c-10-16-15-19-26-30C80 132 11 48 95 2c-22 7-25 9-34 17-52 54-12 131 83 200 8 6 22 21 20 27" class="fil50"/><path d="M169 229c-7-11-12-16-18-22-2-2-5-5-8-9-31-34-64-72-78-107C51 57 55 25 96 3l-2-4C83 3 76 5 72 7c-5 2-8 5-13 9-3 3-6 7-8 10-16 22-19 47-11 74 8 26 27 54 56 81 13 13 29 26 46 39 5 3 11 9 15 15 3 4 5 8 4 10l4 1c1-3-1-8-5-14-5-6-11-13-16-16-17-13-33-25-46-38-28-27-47-54-55-79s-5-49 10-70c2-3 5-6 8-10 4-4 7-6 12-8 2-1 3-2 6-2-30 23-31 52-18 84 15 36 48 74 79 108 3 3 6 6 8 9 6 6 11 11 17 21l3-2z" style="fill:url(#id32);fill-rule:nonzero"/><path d="M138 239c-11-21-33-42-45-51-34-25-83-74-66-106-29 43 0 91 69 130 14 8 31 18 36 36" class="fil50"/><path d="M140 238c-5-9-12-18-19-26-10-11-20-20-26-25-20-14-44-36-57-58-10-16-14-32-8-45l-3-2c-1 2-2 3-3 5-11 19-11 39-1 59 9 20 28 39 54 57 6 4 13 8 20 12s15 9 21 14c6 6 12 12 14 21l4-1c-3-9-9-16-16-22s-15-11-22-15-14-8-20-12c-26-17-44-36-53-55-7-16-9-31-3-47 0 11 4 22 11 33 14 23 39 45 59 59 6 5 16 14 26 24 7 8 14 17 18 26l3-2z" style="fill:url(#id30);fill-rule:nonzero"/><path d="M114 253c-21-33-93-62-99-95-3 64 51 68 95 103" class="fil50"/><g style="clip-path:url(#id10)"><path d="M116 261H12V157h104zl-2-2H14V159h100v100z" class="fil53"/><path d="M115 260H13V158h102zl-2-2H15v-98h98v98z" class="fil54"/><path d="M114 259H14V159h100zl-2-2H16v-96h96v96z" class="fil55"/><path d="M113 258H15v-98h98zl-2-2H17v-94h94v94z" class="fil56"/><path d="M112 257H16v-96h96zl-2-2H18v-92h92v92z" class="fil57"/><path d="M111 256H17v-94h94zl-2-2H19v-90h90v90z" class="fil58"/><path d="M110 255H18v-92h92zl-2-2H20v-88h88v88z" class="fil59"/><path d="M109 254H19v-90h90zl-2-2H21v-86h86v86z" class="fil60"/><path d="M108 253H20v-88h88zl-2-2H22v-84h84v84z" class="fil61"/><path d="M107 252H21v-86h86zl-2-2H23v-82h82v82z" class="fil62"/><path d="M106 251H22v-84h84zl-2-2H24v-80h80v80z" class="fil63"/><path d="M105 250H23v-82h82zl-2-2H25v-78h78v78z" class="fil64"/><path d="M104 249H24v-80h80zl-3-2H26v-75h75v75z" class="fil65"/><path d="M103 248H25v-78h78zl-3-2H27v-73h73v73z" class="fil66"/><path d="M101 247H26v-75h75zl-2-2H28v-71h71v71z" class="fil67"/><path d="M100 246H27v-73h73zl-2-2H29v-69h69v69z" class="fil68"/><path d="M99 245H28v-71h71zl-2-2H30v-67h67v67z" class="fil69"/><path d="M98 244H29v-69h69zl-2-2H31v-65h65v65z" class="fil70"/><path d="M97 243H30v-67h67zl-2-2H32v-63h63v63z" class="fil71"/><path d="M96 242H31v-65h65zl-2-3H34v-60h60v60z" class="fil72"/><path d="M95 241H32v-63h63zl-2-3H35v-58h58v58z" class="fil73"/><path d="M94 239H34v-60h60zl-2-2H36v-56h56v56z" class="fil74"/><path d="M93 238H35v-58h58zl-2-2H37v-54h54v54z" class="fil75"/><path d="M92 237H36v-56h56zl-2-2H38v-52h52v52z" class="fil76"/><path d="M91 236H37v-54h54zl-2-2H39v-50h50v50z" class="fil77"/><path d="M90 235H38v-52h52zl-2-2H40v-48h48v48z" class="fil78"/><path d="M89 234H39v-50h50zl-2-2H41v-46h46v46z" class="fil79"/><path d="M88 233H40v-48h48zl-2-2H42v-44h44v44z" class="fil80"/><path d="M87 232H41v-46h46zl-2-2H43v-42h42v42z" class="fil80"/><path d="M86 231H42v-44h44zl-2-2H44v-40h40v40z" class="fil81"/><path d="M85 230H43v-42h42zl-2-2H45v-38h38v38z" class="fil82"/><path d="M84 229H44v-40h40zl-2-2H46v-36h36v36z" class="fil83"/><path d="M83 228H45v-38h38zl-2-2H47v-34h34v34z" class="fil84"/><path d="M82 227H46v-36h36zl-2-2H48v-32h32v32z" class="fil85"/><path d="M81 226H47v-34h34zl-3-2H49v-29h29v29z" class="fil86"/><path d="M80 225H48v-32h32zl-3-2H50v-27h27v27z" class="fil86"/><path d="M78 224H49v-29h29zl-2-2H51v-25h25v25z" class="fil87"/><path d="M77 223H50v-27h27zl-2-2H52v-23h23v23z" class="fil88"/><path d="M76 222H51v-25h25zl-2-2H53v-21h21v21z" class="fil89"/><path d="M75 221H52v-23h23zl-2-2H54v-19h19v19z" class="fil90"/><path d="M74 220H53v-21h21zl-2-2H55v-17h17v17z" class="fil91"/><path d="M73 219H54v-19h19zl-2-3H57v-14h14v14z" class="fil92"/><path d="M72 218H55v-17h17zl-2-3H58v-12h12v12z" class="fil93"/><path d="M71 216H57v-14h14zl-2-2H59v-10h10v10z" class="fil94"/><path d="M70 215H58v-12h12zl-2-2h-8v-8h8v8z" class="fil95"/><path d="M69 214H59v-10h10zl-2-2h-6v-6h6v6z" class="fil96"/><path d="M68 213h-8v-8h8zl-2-2h-4v-4h4v4z" class="fil97"/><path d="M67 212h-6v-6h6zl-2-2h-2v-2h2v2z" class="fil98"/><path d="M66 211h-4v-4h4zl-2-2z" class="fil99"/><path d="M65 210h-2v-2h2z" class="fil100"/></g><path d="M106 267c-34-22-88-44-103-65-4 49 66 56 99 71" class="fil50"/><g style="clip-path:url(#id11)"><path d="M107 291H1V185h106zl-2-2H3V187h102v102z" class="fil53"/><path d="M106 290H2V186h104zl-3-2H4V188h99v100z" class="fil54"/><path d="M105 289H3V187h102zl-3-2H5v-98h97v98z" class="fil55"/><path d="M103 288H4V188h99zl-2-2H6v-95h95v95z" class="fil56"/><path d="M102 287H5v-98h97zl-2-2H7v-93h93v93z" class="fil57"/><path d="M101 286H6v-95h95zl-2-2H8v-91h91v91z" class="fil58"/><path d="M100 285H7v-93h93zl-2-2H9v-89h89v89z" class="fil59"/><path d="M99 284H8v-91h91zl-2-2H10v-87h87v87z" class="fil60"/><path d="M98 283H9v-89h89zl-2-2H11v-85h85v85z" class="fil61"/><path d="M97 282H10v-87h87zl-2-3H12v-82h83v82z" class="fil62"/><path d="M96 281H11v-85h85zl-2-3H13v-80h81v80z" class="fil63"/><path d="M95 279H12v-82h83zl-2-2H15v-78h78v78z" class="fil64"/><path d="M94 278H13v-80h81zl-2-2H16v-76h76v76z" class="fil65"/><path d="M93 277H15v-78h78zl-2-2H17v-74h74v74z" class="fil66"/><path d="M92 276H16v-76h76zl-2-2H18v-72h72v72z" class="fil67"/><path d="M91 275H17v-74h74zl-2-2H19v-70h70v70z" class="fil68"/><path d="M90 274H18v-72h72zl-2-2H20v-68h68v68z" class="fil69"/><path d="M89 273H19v-70h70zl-2-2H21v-66h66v66z" class="fil70"/><path d="M88 272H20v-68h68zl-3-2H22v-64h63v64z" class="fil71"/><path d="M87 271H21v-66h66zl-3-2H23v-62h61v62z" class="fil72"/><path d="M85 270H22v-64h63zl-2-2H24v-59h59v59z" class="fil73"/><path d="M84 269H23v-62h61zl-2-2H25v-57h57v57z" class="fil74"/><path d="M83 268H24v-59h59zl-2-2H26v-55h55v55z" class="fil75"/><path d="M82 267H25v-57h57zl-2-2H27v-53h53v53z" class="fil76"/><path d="M81 266H26v-55h55zl-2-2H28v-51h51v51z" class="fil77"/><path d="M80 265H27v-53h53zl-2-2H29v-49h49v49z" class="fil78"/><path d="M79 264H28v-51h51zl-2-3H30v-46h47v46z" class="fil79"/><path d="M78 263H29v-49h49zl-2-3H31v-44h45v44z" class="fil80"/><path d="M77 261H30v-46h47zl-2-2H33v-42h42v42z" class="fil80"/><path d="M76 260H31v-44h45zl-2-2H34v-40h40v40z" class="fil81"/><path d="M75 259H33v-42h42zl-2-2H35v-38h38v38z" class="fil82"/><path d="M74 258H34v-40h40zl-2-2H36v-36h36v36z" class="fil83"/><path d="M73 257H35v-38h38zl-2-2H37v-34h34v34z" class="fil84"/><path d="M72 256H36v-36h36zl-2-2H38v-32h32v32z" class="fil85"/><path d="M71 255H37v-34h34zl-2-2H39v-30h30v30z" class="fil86"/><path d="M70 254H38v-32h32zl-3-2H40v-28h27v28z" class="fil86"/><path d="M69 253H39v-30h30zl-3-2H41v-26h25v26z" class="fil87"/><path d="M67 252H40v-28h27zl-2-2H42v-23h23v23z" class="fil88"/><path d="M66 251H41v-26h25zl-2-2H43v-21h21v21z" class="fil89"/><path d="M65 250H42v-23h23zl-2-2H44v-19h19v19z" class="fil90"/><path d="M64 249H43v-21h21zl-2-2H45v-17h17v17z" class="fil91"/><path d="M63 248H44v-19h19zl-2-2H46v-15h15v15z" class="fil92"/><path d="M62 247H45v-17h17zl-2-2H47v-13h13v13z" class="fil93"/><path d="M61 246H46v-15h15zl-2-3H48v-10h11v10z" class="fil94"/><path d="M60 245H47v-13h13zl-2-3h-9v-8h9v8z" class="fil95"/><path d="M59 243H48v-10h11zl-2-2h-6v-6h6v6z" class="fil96"/><path d="M58 242h-9v-8h9zl-2-2h-4v-4h4v4z" class="fil97"/><path d="M57 241h-6v-6h6zl-2-2h-2v-2h2v2z" class="fil98"/><path d="M56 240h-4v-4h4zl-2-2z" class="fil99"/><path d="M55 239h-2v-2h2z" class="fil100"/></g><path d="M99 280c-32-11-80-21-97-32 10 41 47 40 97 37" class="fil50"/><g style="clip-path:url(#id12)"><path d="M99 318H0V218h99zl-2-2H2v-96h95v96z" class="fil53"/><path d="M98 317H1v-98h97zl-2-2H3v-94h93v94z" class="fil54"/><path d="M97 316H2v-96h95zl-2-2H4v-92h91v92z" class="fil55"/><path d="M96 315H3v-94h93zl-2-2H5v-90h89v90z" class="fil56"/><path d="M95 314H4v-92h91zl-2-2H6v-88h87v88z" class="fil57"/><path d="M94 313H5v-90h89zl-2-2H7v-86h85v86z" class="fil58"/><path d="M93 312H6v-88h87zl-2-2H8v-84h83v84z" class="fil59"/><path d="M92 311H7v-86h85zl-2-2H9v-82h81v82z" class="fil60"/><path d="M91 310H8v-84h83zl-2-2H10v-80h79v80z" class="fil61"/><path d="M90 309H9v-82h81zl-2-2H11v-78h77v78z" class="fil62"/><path d="M89 308H10v-80h79zl-2-2H12v-76h75v76z" class="fil63"/><path d="M88 307H11v-78h77zl-2-2H13v-74h73v74z" class="fil64"/><path d="M87 306H12v-76h75zl-2-2H14v-72h71v72z" class="fil65"/><path d="M86 305H13v-74h73zl-2-2H15v-70h69v70z" class="fil66"/><path d="M85 304H14v-72h71zl-2-2H16v-68h67v68z" class="fil67"/><path d="M84 303H15v-70h69zl-2-2H17v-66h65v66z" class="fil68"/><path d="M83 302H16v-68h67zl-2-2H18v-64h63v64z" class="fil69"/><path d="M82 301H17v-66h65zl-2-2H19v-62h61v62z" class="fil70"/><path d="M81 300H18v-64h63zl-2-2H20v-60h59v60z" class="fil71"/><path d="M80 299H19v-62h61zl-2-2H21v-58h57v58z" class="fil72"/><path d="M79 298H20v-60h59zl-2-2H22v-56h55v56z" class="fil73"/><path d="M78 297H21v-58h57zl-2-2H23v-54h53v54z" class="fil74"/><path d="M77 296H22v-56h55zl-2-2H24v-52h51v52z" class="fil75"/><path d="M76 295H23v-54h53zl-2-2H25v-50h49v50z" class="fil76"/><path d="M75 294H24v-52h51zl-2-2H26v-48h47v48z" class="fil77"/><path d="M74 293H25v-50h49zl-2-2H27v-46h45v46z" class="fil78"/><path d="M73 292H26v-48h47zl-1-2H28v-44h44v44z" class="fil79"/><path d="M72 291H27v-46h45zl-1-2H29v-42h42v42z" class="fil80"/><path d="M72 290H28v-44h44zl-2-2H30v-40h40v40z" class="fil80"/><path d="M71 289H29v-42h42zl-2-2H31v-38h38v38z" class="fil81"/><path d="M70 288H30v-40h40zl-2-2H32v-36h36v36z" class="fil82"/><path d="M69 287H31v-38h38zl-2-2H33v-34h34v34z" class="fil83"/><path d="M68 286H32v-36h36zl-2-2H34v-32h32v32z" class="fil84"/><path d="M67 285H33v-34h34zl-2-2H35v-30h30v30z" class="fil85"/><path d="M66 284H34v-32h32zl-2-2H36v-28h28v28z" class="fil86"/><path d="M65 283H35v-30h30zl-2-2H37v-26h26v26z" class="fil86"/><path d="M64 282H36v-28h28zl-2-2H38v-24h24v24z" class="fil87"/><path d="M63 281H37v-26h26zl-2-2H39v-22h22v22z" class="fil88"/><path d="M62 280H38v-24h24zl-2-2H40v-20h20v20z" class="fil89"/><path d="M61 279H39v-22h22zl-2-2H41v-18h18v18z" class="fil90"/><path d="M60 278H40v-20h20zl-2-2H42v-16h16v16z" class="fil91"/><path d="M59 277H41v-18h18zl-2-2H43v-14h14v14z" class="fil92"/><path d="M58 276H42v-16h16zl-2-2H44v-12h12v12z" class="fil93"/><path d="M57 275H43v-14h14zl-2-2H45v-10h10v10z" class="fil94"/><path d="M56 274H44v-12h12zl-2-2h-8v-8h8v8z" class="fil95"/><path d="M55 273H45v-10h10zl-2-2h-6v-6h6v6z" class="fil96"/><path d="M54 272h-8v-8h8zl-2-2h-4v-4h4v4z" class="fil97"/><path d="M53 271h-6v-6h6zl-2-2h-2v-2h2v2z" class="fil98"/><path d="M52 270h-4v-4h4zl-2-2z" class="fil99"/><path d="M51 269h-2v-2h2z" class="fil100"/></g><path d="M99 307c-30 1-70 17-84-12 9 2 56-9 85 3" class="fil50"/><g style="clip-path:url(#id13)"><path d="M211 353 40 413l-60-171 171-60zl-4-2-165 58-58-165 165-58 58 165z" class="fil53"/><path d="M209 352 41 411l-59-168 168-59zl-5-3-161 57-56-161 161-56 56 160z" class="fil101"/><path d="M207 351 42 409l-58-165 165-58zl-5-3-157 56-56-158 158-55 55 157z" class="fil102"/><path d="M204 349 43 406l-56-161 161-56zl-4-2-154 55-55-154 154-55 55 154z" class="fil103"/><path d="M202 348 45 404l-56-158 158-55zl-5-2-150 53-53-150 150-53 53 150z" class="fil104"/><path d="M200 347 46 402-9 248l154-55zl-5-2-147 52-52-147 147-52 52 147z" class="fil105"/><path d="M197 346 47 399-6 249l150-53zl-4-2-144 51-51-144 144-51 51 144z" class="fil106"/><path d="M195 345 48 397-4 250l147-52zl-5-2-140 49L1 252l140-49 49 140z" class="fil107"/><path d="M193 344 49 395-2 251l144-51zl-5-2-137 48L3 253l137-48 48 137z" class="fil108"/><path d="M190 343 50 392 1 252l140-49zl-4-2-134 47L5 254l134-47 47 134z" class="fil109"/><path d="M188 342 51 390 3 253l137-48zl-4-2-131 45L8 255l130-46 46 131z" class="fil110"/><path d="M186 341 52 388 5 254l134-47zl-5-3-126 45-45-127 127-44 44 126z" class="fil111"/><path d="M184 340 53 385 8 255l130-46zl-5-3-123 44-44-123 123-44 44 123z" class="fil112"/><path d="M181 338 55 383 10 256l127-44zl-4-2-120 42-42-119 119-43 43 120z" class="fil113"/><path d="M179 337 56 381 12 258l123-44zl-5-2-116 41-41-116 116-41 41 116z" class="fil114"/><path d="M177 336 57 378 15 259l119-43zl-5-2-113 40-40-113 113-40 40 113z" class="fil115"/><path d="M174 335 58 376 17 260l116-41zl-4-2-110 38-39-109 110-39 39 110z" class="fil116"/><path d="M172 334 59 374 19 261l113-40zl-5-2-106 37-37-106 106-37 37 106z" class="fil117"/><path d="M170 333 60 372 21 262l110-39zl-5-2-103 36-36-103 103-36 36 103z" class="fil118"/><path d="M167 332 61 369 24 263l106-37zl-4-2-100 35-35-100 100-35 35 100z" class="fil119"/><path d="M165 331 62 367 26 264l103-36zl-5-3-95 34-34-96 96-33 33 95z" class="fil120"/><path d="M163 330 63 365 28 265l100-35zl-5-3-92 33-33-92 92-33 33 92z" class="fil121"/><path d="m160 328-95 34-34-96 96-33zl-4-2-89 32-32-89 89-32 32 89z" class="fil122"/><path d="m158 327-92 33-33-92 92-33zl-5-2-85 30-30-85 85-30 30 85z" class="fil123"/><path d="m156 326-89 32-32-89 89-32zl-5-2-82 29-29-82 82-29 29 82z" class="fil124"/><path d="m153 325-85 30-30-85 85-30zl-4-2-79 28-28-79 79-28 28 79z" class="fil125"/><path d="m151 324-82 29-29-82 82-29zl-5-2-75 26-26-75 75-27 26 76z" class="fil126"/><path d="m149 323-79 28-28-79 79-28zl-5-2-72 25-25-72 72-25 25 72z" class="fil127"/><path d="m146 322-75 26-26-75 75-27zl-4-2-69 24-24-69 69-24 24 69z" class="fil128"/><path d="m144 321-72 25-25-72 72-25zl-4-3-65 23-23-65 65-23 23 65z" class="fil129"/><path d="m142 320-69 24-24-69 69-24zl-5-3-61 22-22-62 61-21 22 61z" class="fil130"/><path d="m140 318-65 23-23-65 65-23zl-5-2-58 21-21-58 58-21 21 58z" class="fil131"/><path d="m137 317-61 22-22-62 61-21zl-4-2-55 19-19-54 54-20 20 55z" class="fil132"/><path d="m135 316-58 21-21-58 58-21zl-5-2-51 18-18-51 51-18 18 51z" class="fil133"/><path d="m133 315-55 19-19-54 54-20zl-5-2-48 17-17-48 48-17 17 48z" class="fil134"/><path d="m130 314-51 18-18-51 51-18zl-4-2-45 16-16-45 45-16 16 45z" class="fil88"/><path d="m128 313-48 17-17-48 48-17zl-5-2-41 14-14-41 41-14 14 41z" class="fil87"/><path d="m126 312-45 16-16-45 45-16zl-5-2-38 13-13-38 38-13 13 38z" class="fil135"/><path d="m123 311-41 14-14-41 41-14zl-4-3-35 13-12-35 35-12 12 34z" class="fil136"/><path d="m121 310-38 13-13-38 38-13zl-5-3-30 11-11-31 31-10 10 30z" class="fil84"/><path d="m119 308-35 13-12-35 35-12zl-5-2-27 10-10-27 27-10 10 27z" class="fil137"/><path d="m116 307-30 11-11-31 31-10zl-4-2-24 9-9-24 24-9 9 24z" class="fil138"/><path d="m114 306-27 10-10-27 27-10zl-5-2-20 7-7-20 20-7 7 20z" class="fil81"/><path d="m112 305-24 9-9-24 24-9zl-5-2-17 6-6-17 17-6 6 17z" class="fil80"/><path d="m109 304-20 7-7-20 20-7zl-4-2-14 5-5-14 14-5 5 14z" class="fil139"/><path d="m107 303-17 6-6-17 17-6zl-5-2-10 3-3-10 10-4 3 11z" class="fil140"/><path d="m105 302-14 5-5-14 14-5zl-5-2-7 2-2-7 7-2 2 7z" class="fil141"/><path d="m102 301-10 3-3-10 10-4zl-4-2-4 1-1-4 4-1 1 4z" class="fil142"/><path d="m100 300-7 2-2-7 7-2zl-4-3z" class="fil143"/><path d="m98 299-4 1-1-4 4-1z" class="fil100"/></g><path d="M86 320c-23-2-44-1-62 5 14 15 40 27 79-1" class="fil50"/><g style="clip-path:url(#id14)"><path d="M184 396 27 412 11 255l156-16zl-4-3-150 16-16-151 151-16 15 151z" class="fil53"/><path d="M182 394 28 410 12 257l154-16zl-4-2-147 15-15-148 147-15 15 148z" class="fil54"/><path d="M180 393 30 409 14 258l151-16zl-3-3-145 15-14-144 144-15 15 144z" class="fil55"/><path d="M178 392 31 407 16 259l147-15zl-3-3-141 14-15-141 141-14 15 141z" class="fil56"/><path d="M177 390 32 405 18 261l144-15zl-4-3-138 15-14-138 138-15 14 138z" class="fil57"/><path d="M175 389 34 403 19 262l141-14zl-3-3-135 14-14-135 135-14 14 135z" class="fil58"/><path d="M173 387 35 402 21 264l138-15zl-3-2-132 13-13-132 131-13 14 132z" class="fil59"/><path d="M172 386 37 400 23 265l135-14zl-4-3-129 13-13-128 129-13 13 128z" class="fil60"/><path d="M170 385 38 398 25 266l131-13zl-4-3-125 13-13-126 125-13 13 126z" class="fil61"/><path d="M168 383 39 396 26 268l129-13zl-3-3-123 13-12-122 122-13 13 122z" class="fil62"/><path d="M166 382 41 395 28 269l125-13zl-3-3-119 12-13-119 120-12 12 119z" class="fil63"/><path d="M165 380 42 393 30 271l122-13zl-4-2-116 12-12-117 116-11 12 116z" class="fil64"/><path d="M163 379 44 391 31 272l120-12zl-4-3-112 12-12-113 113-12 11 113z" class="fil65"/><path d="M161 378 45 390 33 273l116-11zl-3-3-110 11-11-110 109-11 12 110z" class="fil66"/><path d="M159 376 47 388 35 275l113-12zl-3-3-107 11-11-106 107-11 11 106z" class="fil67"/><path d="M158 375 48 386 37 276l109-11zl-4-3-103 11-11-104 104-11 10 104z" class="fil68"/><path d="M156 373 49 384 38 278l107-11zl-4-2-100 10-10-101 100-10 10 101z" class="fil69"/><path d="M154 372 51 383 40 279l104-11zl-3-3-97 10-10-97 97-10 10 97z" class="fil70"/><path d="M152 371 52 381 42 281l100-11zl-3-3-94 9-10-94 94-9 10 94z" class="fil71"/><path d="m151 369-97 10-10-97 97-10zl-4-3-91 10-9-91 91-10 9 91z" class="fil72"/><path d="m149 368-94 9-10-94 94-9zl-3-3-88 9-9-88 88-9 9 88z" class="fil73"/><path d="m147 366-91 10-9-91 91-10zl-3-3-85 9-9-84 85-9 9 84z" class="fil74"/><path d="m146 365-88 9-9-88 88-9zl-4-3-81 8-9-81 82-8 8 81z" class="fil75"/><path d="m144 363-85 9-9-84 85-9zl-4-2-78 8-8-79 78-8 8 79z" class="fil76"/><path d="m142 362-81 8-9-81 82-8zl-3-3-76 8-7-75 75-8 8 75z" class="fil77"/><path d="m140 361-78 8-8-79 78-8zl-3-3-72 7-8-72 73-7 7 72z" class="fil78"/><path d="m139 359-76 8-7-75 75-8zl-4-3-69 8-7-69 69-8 7 69z" class="fil79"/><path d="m137 358-72 7-8-72 73-7zl-4-3-65 7-7-66 66-7 6 66z" class="fil80"/><path d="m135 356-69 8-7-69 69-8zl-3-2-63 6-6-63 62-6 7 63z" class="fil80"/><path d="m133 355-65 7-7-66 66-7zl-3-3-60 6-6-59 60-6 6 59z" class="fil81"/><path d="m132 354-63 6-6-63 62-6zl-4-3-56 6-6-57 56-6 6 57z" class="fil82"/><path d="m130 352-60 6-6-59 60-6zl-3-3-54 6-5-53 53-6 6 53z" class="fil83"/><path d="m128 351-56 6-6-57 56-6zl-3-3-50 5-6-50 51-5 5 50z" class="fil84"/><path d="m127 349-54 6-5-53 53-6zl-4-2-47 4-5-47 47-4 5 47z" class="fil85"/><path d="m125 348-50 5-6-50 51-5zl-4-3-44 5-4-44 44-5 4 44z" class="fil86"/><path d="m123 347-47 4-5-47 47-4zl-3-3-41 4-4-41 40-4 5 41z" class="fil86"/><path d="m121 345-44 5-4-44 44-5zl-3-3-38 4-4-37 38-4 4 37z" class="fil87"/><path d="m120 344-41 4-4-41 40-4zl-4-3-34 4-4-35 35-4 3 35z" class="fil88"/><path d="m118 342-38 4-4-37 38-4zl-4-2-31 3-3-32 31-3 3 32z" class="fil89"/><path d="m116 341-34 4-4-35 35-4zl-3-3-29 3-2-28 28-3 3 28z" class="fil90"/><path d="m114 340-31 3-3-32 31-3zl-3-3-25 2-3-25 25-2 3 25z" class="fil91"/><path d="m113 338-29 3-2-28 28-3zl-4-3-22 3-2-22 22-3 2 22z" class="fil92"/><path d="m111 337-25 2-3-25 25-2zl-3-3-19 2-2-19 19-2 2 19z" class="fil93"/><path d="m109 335-22 3-2-22 22-3zl-3-2-16 1-1-16 15-1 2 16z" class="fil94"/><path d="m108 334-19 2-2-19 19-2zl-4-3-12 1-2-12 13-1 1 12z" class="fil95"/><path d="m106 333-16 1-1-16 15-1zl-4-3-9 1-1-10 9-1 1 10z" class="fil96"/><path d="m104 331-12 1-2-12 13-1zl-3-3-7 1v-6l6-1 1 6z" class="fil97"/><path d="m102 330-9 1-1-10 9-1zl-3-3h-3l-1-3h4v3z" class="fil98"/><path d="m101 328-7 1v-6l6-1zl-4-2z" class="fil99"/><path d="M99 327h-3l-1-3h4z" class="fil100"/></g><path d="M105 331c-24 8-42 17-53 28 20 11 41 8 65-19" class="fil50"/><g style="clip-path:url(#id15)"><path d="M177 379 64 418 25 305l113-39zl-3-1-109 37-37-108 109-38 37 109z" class="fil53"/><path d="M176 379 65 417 27 306l111-38zl-3-2-107 37-36-107 106-36 37 106z" class="fil144"/><path d="M174 378 65 415 28 307l109-38zl-3-1-104 35-36-104 104-36 36 105z" class="fil145"/><path d="M173 377 66 414 30 307l106-36zl-3-1-102 35-35-102 102-35 35 102z" class="fil146"/><path d="M171 377 67 412 31 308l104-36zl-3-2-100 34-34-99 100-35 34 100z" class="fil147"/><path d="M170 376 68 411 33 309l102-35zl-3-2-98 34-33-98 97-33 34 97z" class="fil148"/><path d="M168 375 68 409l-34-99 100-35zl-3-1-95 32-33-95 95-33 33 96z" class="fil149"/><path d="m167 374-98 34-33-98 97-33zl-3-1-93 32-32-93 93-32 32 93z" class="fil150"/><path d="m165 374-95 32-33-95 95-33zl-3-2-91 31-31-90 91-32 31 91z" class="fil151"/><path d="m164 373-93 32-32-93 93-32zl-4-2-88 31-30-89 88-30 30 88z" class="fil152"/><path d="m162 372-91 31-31-90 91-32zl-3-1-86 29-30-86 86-30 30 87z" class="fil153"/><path d="m160 371-88 31-30-89 88-30zl-3-1-83 29-29-84 84-29 28 84z" class="fil154"/><path d="m159 371-86 29-30-86 86-30zl-3-2-82 28-28-81 82-28 28 81z" class="fil155"/><path d="m157 370-83 29-29-84 84-29zl-3-2-79 28-27-80 79-27 27 79z" class="fil156"/><path d="m156 369-82 28-28-81 82-28zl-3-1-77 26-27-77 77-26 27 77z" class="fil157"/><path d="m154 368-79 28-27-80 79-27zl-3-1-74 26-26-75 75-26 25 75z" class="fil158"/><path d="m153 368-77 26-27-77 77-26zl-3-2-73 25-25-72 73-25 25 72z" class="fil159"/><path d="m151 367-74 26-26-75 75-26zl-3-2-70 24-24-70 70-24 24 70z" class="fil160"/><path d="m150 366-73 25-25-72 73-25zl-3-1-68 23-23-68 67-23 24 68z" class="fil161"/><path d="m148 365-70 24-24-70 70-24zl-3-1-65 22-23-65 66-23 22 66z" class="fil162"/><path d="m147 365-68 23-23-68 67-23zl-3-2-64 22-21-64 63-21 22 63z" class="fil163"/><path d="m145 364-65 22-23-65 66-23zl-3-2-61 21-21-61 61-21 21 61z" class="fil164"/><path d="m144 363-64 22-21-64 63-21zl-3-1-59 20-20-59 58-20 21 59z" class="fil165"/><path d="m142 362-61 21-21-61 61-21zl-3-1-56 19-20-56 57-20 19 57z" class="fil166"/><path d="m141 362-59 20-20-59 58-20zl-3-2-55 19-18-55 54-18 19 54z" class="fil167"/><path d="m139 361-56 19-20-56 57-20zl-3-2-52 18-18-52 52-18 18 52z" class="fil80"/><path d="m138 360-55 19-18-55 54-18zl-3-1-50 17-17-50 50-17 17 50z" class="fil168"/><path d="m136 359-52 18-18-52 52-18zl-3-1-47 16-17-47 48-17 16 48z" class="fil82"/><path d="m135 359-50 17-17-50 50-17zl-3-2-46 16-15-46 45-15 16 45z" class="fil83"/><path d="m133 358-47 16-17-47 48-17zl-3-2-43 15-15-43 43-15 15 43z" class="fil84"/><path d="m132 357-46 16-15-46 45-15zl-3-1-41 14-14-41 41-14 14 41z" class="fil136"/><path d="m130 356-43 15-15-43 43-15zl-3-1-38 13-14-38 39-14 13 39z" class="fil169"/><path d="m129 356-41 14-14-41 41-14zl-4-2-36 13-12-37 36-12 12 36z" class="fil170"/><path d="m127 355-38 13-14-38 39-14zl-3-2-34 12-12-34 34-12 12 34z" class="fil89"/><path d="m125 354-36 13-12-37 36-12zl-3-1-31 11-11-32 32-11 10 32z" class="fil171"/><path d="m124 353-34 12-12-34 34-12zl-3-1-30 10-10-29 30-10 10 29z" class="fil172"/><path d="m122 353-31 11-11-32 32-11zl-3-2-27 10-9-28 27-9 9 27z" class="fil173"/><path d="m121 352-30 10-10-29 30-10zl-3-2-25 9-9-25 25-8 9 24z" class="fil174"/><path d="m119 351-27 10-9-28 27-9zl-3-1-22 8-8-23 23-8 7 23z" class="fil175"/><path d="m118 350-25 9-9-25 25-8zl-3-1-21 7-7-20 21-7 7 20z" class="fil176"/><path d="m116 350-22 8-8-23 23-8zl-3-2-18 6-6-18 18-6 6 18z" class="fil94"/><path d="m115 349-21 7-7-20 21-7zl-3-1-16 5-6-16 16-5 6 16z" class="fil177"/><path d="m113 348-18 6-6-18 18-6zl-3-1-13 4-5-13 14-5 4 14z" class="fil178"/><path d="m112 348-16 5-5-16 15-5zl-3-2-12 4-3-11 11-4 4 11z" class="fil179"/><path d="m110 347-13 4-5-13 14-5zl-3-2-9 3-3-9 9-3 3 9z" class="fil180"/><path d="m109 346-12 4-3-11 11-4zl-3-1-7 2-2-7 6-2 3 7z" class="fil181"/><path d="m107 345-9 3-3-9 9-3zl-3-1-4 1-2-4 5-2 1 5z" class="fil182"/><path d="m106 345-7 2-2-7 6-2zl-3-2-3 1v-2l2-1 1 2z" class="fil99"/><path d="m104 344-4 1-2-4 5-2zl-3-2z" class="fil183"/><path d="m103 343-3 1v-2l2-1z" class="fil100"/></g><path d="M127 354c-13 22-33 29-59 25 12-16 29-25 51-30" class="fil50"/><g style="clip-path:url(#id16)"><path d="M203 374 97 434 37 327l106-60zl-3-1-102 57-58-102 103-58 57 103z" class="fil53"/><path d="M202 373 97 432 38 327l105-58zl-4-1-100 57-56-101 100-56 56 100z" class="fil184"/><path d="M200 373 98 430 40 328l103-58zl-3-1-98 55-56-98 99-55 55 98z" class="fil185"/><path d="M198 372 98 429 42 328l100-56zh-3l-96 53-54-96 96-54 54 97z" class="fil58"/><path d="m197 372-98 55-56-98 99-55zl-4-1-94 53-52-94 94-53 52 94z" class="fil186"/><path d="m195 372-96 53-54-96 96-54zl-3-1-92 51-52-92 92-51 52 92z" class="fil187"/><path d="m193 371-94 53-52-94 94-53zl-3-1-90 50-50-89 90-51 50 90z" class="fil188"/><path d="m192 371-92 51-52-92 92-51zl-4-1-87 49-49-88 87-49 49 88z" class="fil154"/><path d="m190 370-90 50-50-89 90-51zl-3-1-86 48-48-85 86-48 48 85z" class="fil189"/><path d="m188 370-87 49-49-88 87-49zl-3-1-83 46-47-83 83-47 47 84z" class="fil157"/><path d="m187 369-86 48-48-85 86-48zl-4-1-81 46-45-81 81-46 45 81z" class="fil190"/><path d="m185 369-83 46-47-83 83-47zl-3-1-79 44-45-79 79-44 45 79z" class="fil191"/><path d="m183 368-81 46-45-81 81-46zl-3-1-77 43-43-76 77-44 43 77z" class="fil192"/><path d="m182 368-79 44-45-79 79-44zl-4-1-74 42-42-75 74-42 42 75z" class="fil75"/><path d="m180 367-77 43-43-76 77-44zl-3-1-73 41-41-73 73-40 41 72z" class="fil193"/><path d="m178 367-74 42-42-75 74-42zl-3-1-70 39-40-70 71-40 39 71z" class="fil194"/><path d="m177 366-73 41-41-73 73-40zl-4-1-68 39-38-69 68-38 38 68z" class="fil80"/><path d="m175 366-70 39-40-70 71-40zl-3-1-66 37-38-66 67-37 37 66z" class="fil80"/><path d="m173 365-68 39-38-69 68-38zl-3-1-64 36-36-64 64-36 36 64z" class="fil168"/><path d="m172 365-66 37-38-66 67-37zl-4-1-62 35-34-62 62-35 34 62z" class="fil81"/><path d="m170 364-64 36-36-64 64-36zh-3l-60 33-34-60 60-33 34 60z" class="fil82"/><path d="m168 364-62 35-34-62 62-35zl-3-1-58 32-32-57 58-33 32 58z" class="fil83"/><path d="m167 364-60 33-34-60 60-33zl-4-1-55 31-31-56 55-31 31 56z" class="fil83"/><path d="m165 363-58 32-32-57 58-33zl-3-1-54 30-30-53 54-30 30 53z" class="fil84"/><path d="m163 363-55 31-31-56 55-31zl-3-1-51 28-29-51 51-29 29 52z" class="fil85"/><path d="m162 362-54 30-30-53 54-30zl-4-1-49 28-27-49 49-28 27 49z" class="fil136"/><path d="m160 362-51 28-29-51 51-29zl-3-1-47 26-27-47 47-26 27 47z" class="fil86"/><path d="m158 361-49 28-27-49 49-28zl-3-1-45 25-25-44 45-26 25 45z" class="fil169"/><path d="m157 361-47 26-27-47 47-26zl-4-1-42 24-24-43 42-24 24 43z" class="fil87"/><path d="m155 360-45 25-25-44 45-26zl-3-1-41 23-23-40 41-23 23 40z" class="fil170"/><path d="m153 360-42 24-24-43 42-24zl-3-1-38 21-22-38 38-22 22 39z" class="fil89"/><path d="m152 359-41 23-23-40 41-23zl-4-1-36 21-20-37 36-20 20 36z" class="fil89"/><path d="m150 359-38 21-22-38 38-22zl-3-1-34 19-20-34 35-19 19 34z" class="fil171"/><path d="m148 358-36 21-20-37 36-20zl-3-1-32 18-18-32 32-18 18 32z" class="fil195"/><path d="m147 358-34 19-20-34 35-19zl-4-1-29 17-17-30 30-17 16 30z" class="fil91"/><path d="m145 357-32 18-18-32 32-18zh-3l-28 15-16-28 28-15 16 28z" class="fil196"/><path d="m143 357-29 17-17-30 30-17zl-3-1-26 14-14-25 26-15 14 26z" class="fil197"/><path d="m142 357-28 15-16-28 28-15zl-4-1-23 13-13-24 23-13 13 24z" class="fil93"/><path d="m140 356-26 14-14-25 26-15zl-3-1-22 12-12-21 22-12 12 21z" class="fil198"/><path d="m138 356-23 13-13-24 23-13zl-3-1-19 10-11-19 19-11 11 20z" class="fil199"/><path d="m137 355-22 12-12-21 22-12zl-4-1-17 10-9-17 17-10 9 17z" class="fil177"/><path d="m135 355-19 10-11-19 19-11zl-3-1-15 8-9-15 15-8 9 15z" class="fil178"/><path d="m133 354-17 10-9-17 17-10zl-3-1-13 7-7-12 13-8 7 13z" class="fil96"/><path d="m132 354-15 8-9-15 15-8zl-4-1-10 6-6-11 10-6 6 11z" class="fil200"/><path d="m130 353-13 7-7-12 13-8zl-3-1-9 5-5-8 9-5 5 8z" class="fil201"/><path d="m128 353-10 6-6-11 10-6zl-3-1-6 3-4-6 6-4 4 7z" class="fil202"/><path d="m127 352-9 5-5-8 9-5zl-4-1-4 3-2-5 4-2 2 4z" class="fil203"/><path d="m125 352-6 3-4-6 6-4zl-3-1-2 1-2-2 3-1 1 2z" class="fil204"/><path d="m123 351-4 3-2-5 4-2zl-3-1z" class="fil205"/><path d="m122 351-2 1-2-2 3-1z" class="fil100"/></g><path d="M142 358c-28 10-46 25-54 43 22 2 42-7 60-37" class="fil50"/><g style="clip-path:url(#id17)"><path d="m93 379-46-40-3 3z" class="fil100"/><path d="m93 379 47 40 2-3z" class="fil53"/><path d="m93 379-49-37-2 3z" class="fil205"/><path d="m93 379 49 37 3-3z" class="fil144"/><path d="m93 379-51-34-2 3z" class="fil204"/><path d="m93 379 52 34 2-3z" class="fil206"/><path d="m93 379-53-31-2 4z" class="fil203"/><path d="m93 379 54 31 2-4z" class="fil207"/><path d="m93 379-55-27-2 4z" class="fil208"/><path d="m93 379 56 27 1-3z" class="fil209"/><path d="m93 379-57-23-1 3z" class="fil210"/><path d="m93 379 57 24 2-4z" class="fil59"/><path d="m93 379-58-20-1 4z" class="fil211"/><path d="m93 379 59 20 1-4z" class="fil212"/><path d="m93 379-59-16-1 4z" class="fil213"/><path d="m93 379 60 16 1-4z" class="fil187"/><path d="m93 379-60-12-1 4z" class="fil214"/><path d="m93 379 61 12v-4z" class="fil215"/><path d="m93 379-61-8v4z" class="fil216"/><path d="m93 379 61 8 1-4z" class="fil153"/><path d="m93 379-61-4v4z" class="fil94"/><path d="m93 379 62 4v-4z" class="fil65"/><path d="M93 379H32v4z" class="fil176"/><path d="M93 379h62v-3z" class="fil217"/><path d="m93 379-61 4v4z" class="fil175"/><path d="m93 379 62-3v-4z" class="fil218"/><path d="m93 379-61 8 1 3z" class="fil92"/><path d="m93 379 62-7-1-4z" class="fil219"/><path d="m93 379-60 11 1 4z" class="fil220"/><path d="m93 379 61-11-1-4z" class="fil221"/><path d="m93 379-59 15 1 4z" class="fil222"/><path d="m93 379 60-15-1-4z" class="fil71"/><path d="m93 379-58 19 1 4z" class="fil223"/><path d="m93 379 59-19-1-4z" class="fil224"/><path d="m93 379-57 23 2 3z" class="fil133"/><path d="m93 379 58-23-2-3z" class="fil192"/><path d="m93 379-55 26 1 4z" class="fil88"/><path d="m93 379 56-26-2-4z" class="fil163"/><path d="m93 379-54 30 2 3z" class="fil87"/><path d="m93 379 54-30-2-3z" class="fil225"/><path d="m93 379-52 33 3 4z" class="fil86"/><path d="m93 379 52-33-2-3z" class="fil77"/><path d="m93 379-49 37 2 3z" class="fil136"/><path d="m93 379 50-36-2-4z" class="fil226"/><path d="m93 379-47 40 3 3z" class="fil84"/><path d="m93 379 48-40-3-3z" class="fil227"/><path d="m93 379-44 43 3 2z" class="fil83"/><path d="m93 379 45-43-3-2z" class="fil80"/><path d="m93 379-41 45 3 3z" class="fil82"/><path d="m93 379 42-45-3-3zm0 0-38 48 3 2z" class="fil81"/><path d="m93 379 39-48-3-2z" class="fil82"/><path d="m93 379-35 50 3 3z" class="fil80"/><path d="m93 379 36-50-3-2z" class="fil83"/><path d="m93 379-32 53 3 2z" class="fil227"/><path d="m93 379 33-52-4-2z" class="fil84"/><path d="m93 379-29 55 4 1z" class="fil226"/><path d="m93 379 29-54-3-2z" class="fil136"/><path d="m93 379-25 56 4 2z" class="fil77"/><path d="m93 379 26-56-4-2z" class="fil86"/><path d="m93 379-21 58 3 1z" class="fil225"/><path d="m93 379 22-58-4-1z" class="fil87"/><path d="m93 379-18 59 4 1z" class="fil163"/><path d="m93 379 18-59-4-1z" class="fil88"/><path d="m93 379-14 60 4 1z" class="fil192"/><path d="m93 379 14-60-3-1z" class="fil133"/><path d="m93 379-10 61h4z" class="fil224"/><path d="m93 379 11-61h-4z" class="fil223"/><path d="m93 379-6 61 4 1z" class="fil71"/><path d="m93 379 7-61-4-1z" class="fil222"/><path d="m93 379-2 62h4z" class="fil221"/><path d="m93 379 3-62h-4z" class="fil220"/><path d="m93 379 2 62 4-1z" class="fil219"/><path d="m93 379-1-62-4 1z" class="fil92"/><path d="m93 379 6 61h4z" class="fil218"/><path d="m93 379-5-61h-4z" class="fil175"/><path d="m93 379 10 61 4-1z" class="fil217"/><path d="m93 379-9-61-4 1z" class="fil176"/><path d="m93 379 14 60 3-1z" class="fil65"/><path d="m93 379-13-60-4 1z" class="fil94"/><path d="m93 379 17 59 4-1z" class="fil153"/><path d="m93 379-17-59-4 1z" class="fil216"/><path d="m93 379 21 58 4-1z" class="fil215"/><path d="m93 379-21-58-3 2z" class="fil214"/><path d="m93 379 25 57 3-2z" class="fil187"/><path d="m93 379-24-56-4 1z" class="fil213"/><path d="m93 379 28 55 4-2z" class="fil212"/><path d="m93 379-28-55-3 2z" class="fil211"/><path d="m93 379 32 53 3-2z" class="fil59"/><path d="m93 379-31-53-4 2z" class="fil210"/><path d="m93 379 35 51 3-2z" class="fil209"/><path d="m93 379-35-51-3 3z" class="fil208"/><path d="m93 379 38 49 3-3z" class="fil207"/><path d="m93 379-38-48-3 2z" class="fil203"/><path d="m93 379 41 46 3-3z" class="fil206"/><path d="m93 379-41-46-3 3z" class="fil204"/><path d="m93 379 44 43 3-3z" class="fil144"/><path d="m93 379-44-43-2 3z" class="fil205"/></g><path d="M154 369c-21 14-32 30-33 47 24-2 37-18 40-45" class="fil50"/><g style="clip-path:url(#id18)"><path d="M167 419h-52v-51h52zl-1-1h-50v-49h50v49z" class="fil53"/><path d="M166 418h-50v-50h50zl-1-1h-48v-48h48v48z" class="fil54"/><path d="M166 418h-50v-49h50zl-1-1h-47v-47h47v47z" class="fil55"/><path d="M165 417h-48v-48h48zl-1-1h-46v-46h46v46z" class="fil56"/><path d="M165 417h-47v-47h47zl-1-1h-45v-45h45v45z" class="fil57"/><path d="M164 416h-46v-46h46zl-1-1h-44v-44h44v44z" class="fil58"/><path d="M164 416h-45v-45h45zl-1-1h-43v-43h43v43z" class="fil59"/><path d="M163 415h-44v-44h44zl-1-1h-42v-42h42v42z" class="fil60"/><path d="M163 415h-43v-43h43zl-1-1h-41v-41h41v41z" class="fil61"/><path d="M162 414h-42v-42h42zl-1-1h-40v-40h40v40z" class="fil62"/><path d="M162 414h-41v-41h41zl-1-1h-39v-39h39v39z" class="fil63"/><path d="M161 413h-40v-40h40zl-1-1h-38v-38h38v38z" class="fil64"/><path d="M161 413h-39v-39h39zl-1-1h-37v-37h37v37z" class="fil65"/><path d="M160 412h-38v-38h38zl-1-1h-36v-36h36v36z" class="fil66"/><path d="M160 412h-37v-37h37zl-2-1h-34v-35h34v35z" class="fil67"/><path d="M159 411h-36v-36h36zl-1-1h-34v-34h34v34z" class="fil68"/><path d="M158 411h-34v-35h34zl-1-1h-32v-33h32v33z" class="fil69"/><path d="M158 410h-34v-34h34zl-1-1h-32v-32h32v32z" class="fil70"/><path d="M157 410h-32v-33h32zl-1-1h-30v-31h30v31z" class="fil71"/><path d="M157 409h-32v-32h32zl-1-1h-30v-30h30v30z" class="fil72"/><path d="M156 409h-30v-31h30zl-1-1h-28v-29h28v29z" class="fil73"/><path d="M156 408h-30v-30h30zl-1-1h-28v-28h28v28z" class="fil74"/><path d="M155 408h-28v-29h28zl-1-1h-26v-27h26v27z" class="fil75"/><path d="M155 407h-28v-28h28zl-1-1h-26v-26h26v26z" class="fil76"/><path d="M154 407h-26v-27h26zl-1-2h-24v-24h24v24z" class="fil77"/><path d="M154 406h-26v-26h26zl-1-1h-24v-24h24v24z" class="fil78"/><path d="M153 405h-24v-24h24zl-1-1h-22v-22h22v22z" class="fil79"/><path d="M153 405h-24v-24h24zl-1-1h-22v-22h22v22z" class="fil80"/><path d="M152 404h-22v-22h22zl-1-1h-20v-20h20v20z" class="fil80"/><path d="M152 404h-22v-22h22zl-1-1h-20v-20h20v20z" class="fil81"/><path d="M151 403h-20v-20h20zl-1-1h-18v-18h18v18z" class="fil82"/><path d="M151 403h-20v-20h20zl-1-1h-18v-18h18v18z" class="fil83"/><path d="M150 402h-18v-18h18zl-1-1h-16v-16h16v16z" class="fil84"/><path d="M150 402h-18v-18h18zl-1-1h-16v-15h16v15z" class="fil85"/><path d="M149 401h-16v-16h16zl-1-1h-14v-14h14v14z" class="fil86"/><path d="M149 401h-16v-15h16zl-1-1h-14v-13h14v13z" class="fil86"/><path d="M148 400h-14v-14h14zl-1-1h-12v-12h12v12z" class="fil87"/><path d="M148 400h-14v-13h14zl-1-1h-12v-11h12v11z" class="fil88"/><path d="M147 399h-12v-12h12zl-1-1h-10v-10h10v10z" class="fil89"/><path d="M147 399h-12v-11h12zl-1-1h-10v-9h10v9z" class="fil90"/><path d="M146 398h-10v-10h10zl-1-1h-8v-8h8v8z" class="fil91"/><path d="M146 398h-10v-9h10zl-1-1h-8v-7h8v7z" class="fil92"/><path d="M145 397h-8v-8h8zl-1-1h-6v-6h6v6z" class="fil93"/><path d="M145 397h-8v-7h8zl-1-1h-5v-5h5v5z" class="fil94"/><path d="M144 396h-6v-6h6zl-1-1h-4v-4h4v4z" class="fil95"/><path d="M144 396h-5v-5h5zl-1-1h-3v-3h3v3z" class="fil96"/><path d="M143 395h-4v-4h4zl-1-1h-2v-2h2v2z" class="fil97"/><path d="M143 395h-3v-3h3zl-1-1h-1v-1h1v1z" class="fil98"/><path d="M142 394h-2v-2h2zl-1-1z" class="fil99"/><path d="M142 394h-1v-1h1z" class="fil100"/></g><path d="M173 374c-17 19-17 34-8 52 15-2 22-14 15-48" class="fil50"/><path d="M172 372c-9 10-13 19-14 28s1 17 6 27l1 1h1c8-1 14-5 17-13s3-20-1-37l-4 1c3 17 4 28 1 35-2 6-7 9-13 11-4-8-6-16-5-23 1-8 5-16 13-25l-3-3z" style="fill:url(#id21);fill-rule:nonzero"/><path d="M192 371c23 27 22 47 3 63-10-13-14-31-14-51" class="fil50"/><path d="M191 372c11 13 16 25 17 35 0 9-4 17-11 24q-6-9-9-21c-2-8-3-18-4-28h-4c0 10 1 20 4 28 2 9 6 17 11 24l1 2 2-1c10-8 15-17 14-28 0-11-6-23-17-37l-3 3z" style="fill:url(#id25);fill-rule:nonzero"/><path d="M198 349c37 28 41 53 25 71-15-18-18-50-32-67" class="fil50"/><path d="M197 351c3 2 5 4 8 6q21 18 24 33c3 10 0 19-6 27-6-9-10-20-14-32s-9-25-16-33l-3 2c7 8 11 20 15 32 4 13 9 25 16 35l1 2 2-2 2-2c7-9 9-19 6-30s-11-23-26-35c-2-2-5-4-8-6l-2 3z" style="fill:url(#id26);fill-rule:nonzero"/><path d="M198 345c-4-8-21-14-39-14-42 1-62-60-5-77-57 0-61 82 3 82 17-2 34 2 41 9" style="fill:url(#id20)"/></g></svg>